<?xml version="1.0" standalone="yes"?>
<svg xmlns="http://www.w3.org/2000/svg" width="1200" height="1200">
<path style="fill:#f58149; stroke:none;" d="M0 0L0 1200L1200 1200L1200 0L0 0z"/>
<path style="fill:#232931; stroke:none;" d="M120 429L120 791L802 791L802 429L120 429z"/>
<path style="fill:#483936; stroke:none;" d="M241 483L242 484L241 483z"/>
<path style="fill:#774d3b; stroke:none;" d="M242.667 483.333L243.333 483.667L242.667 483.333z"/>
<path style="fill:#a15d3f; stroke:none;" d="M244 483L244 484L251 484L244 483z"/>
<path style="fill:#f58149; stroke:none;" d="M251 483.424C235.338 485.475 221.356 486.835 207 494.258C167.184 514.847 159.78 573.687 197 600.841C222.187 619.216 254.579 618.603 282 631.784C296.005 638.516 308.158 651.316 305.699 668C303.891 680.272 292.781 689.417 282 694.124C259.307 704.032 230.945 700.396 210 687.985C199.893 681.997 188.082 665.931 175.004 673.14C156.02 683.604 173.408 702.046 184 709.844C206.939 726.733 237.689 734.191 266 730.714C280.693 728.909 295.422 724.975 308 716.91C343.002 694.464 351.818 638.403 316 611.761C292.215 594.069 260.805 593.186 234 582.55C218.746 576.498 204.244 566.183 205.041 548C206.911 505.355 270.021 512.415 295 525.259C304.935 530.368 314.911 543.554 326.985 535.995C341.62 526.832 330.231 511.016 321 503.326C303.783 488.983 273.251 480.511 251 483.424z"/>
<path style="fill:#a15d3f; stroke:none;" d="M260 483L260 484L266 484L260 483z"/>
<path style="fill:#774d3b; stroke:none;" d="M266.667 483.333L267.333 483.667L266.667 483.333z"/>
<path style="fill:#483936; stroke:none;" d="M268 483L269 484L268 483M234 484L235 485L234 484z"/>
<path style="fill:#774d3b; stroke:none;" d="M235.667 484.333L236.333 484.667L235.667 484.333z"/>
<path style="fill:#a15d3f; stroke:none;" d="M237.667 484.333L238.333 484.667L237.667 484.333M272.667 484.333L273.333 484.667L272.667 484.333z"/>
<path style="fill:#774d3b; stroke:none;" d="M274.667 484.333L275.333 484.667L274.667 484.333z"/>
<path style="fill:#483936; stroke:none;" d="M276 484L277 485L276 484M229 485L230 486L229 485z"/>
<path style="fill:#774d3b; stroke:none;" d="M230 485L231 486L230 485z"/>
<path style="fill:#a15d3f; stroke:none;" d="M231 485L232 486L231 485M278.667 485.333L279.333 485.667L278.667 485.333z"/>
<path style="fill:#774d3b; stroke:none;" d="M280 485L281 486L280 485z"/>
<path style="fill:#483936; stroke:none;" d="M281 485L282 486L281 485M225 486L226 487L225 486z"/>
<path style="fill:#774d3b; stroke:none;" d="M226 486L227 487L226 486z"/>
<path style="fill:#a15d3f; stroke:none;" d="M227 486L228 487L227 486M283 486L284 487L283 486z"/>
<path style="fill:#774d3b; stroke:none;" d="M284 486L285 487L284 486z"/>
<path style="fill:#483936; stroke:none;" d="M285 486L286 487L285 486M377 486L378 487L377 486z"/>
<path style="fill:#774d3b; stroke:none;" d="M378 486L378 487L382 487L378 486z"/>
<path style="fill:#a15d3f; stroke:none;" d="M382 486L382 487L539 487C526.831 481.893 505.253 486 492 486L382 486z"/>
<path style="fill:#774d3b; stroke:none;" d="M539 486L539 487L542 487L539 486z"/>
<path style="fill:#483936; stroke:none;" d="M542 486L543 487L542 486M608 486L609 487L608 486z"/>
<path style="fill:#774d3b; stroke:none;" d="M609 486L609 487L612 487L609 486z"/>
<path style="fill:#a15d3f; stroke:none;" d="M612 486L612 487L729 487L693 486L612 486z"/>
<path style="fill:#774d3b; stroke:none;" d="M729 486L729 487L732 487L729 486z"/>
<path style="fill:#483936; stroke:none;" d="M732 486L733 487L732 486z"/>
<path style="fill:#a15d3f; stroke:none;" d="M844 486L844 487L849 487L844 486M1008 486L1008 487L1014 487L1008 486z"/>
<path style="fill:#483936; stroke:none;" d="M221 487L222 488L221 487z"/>
<path style="fill:#774d3b; stroke:none;" d="M222 487L223 488L222 487z"/>
<path style="fill:#a15d3f; stroke:none;" d="M223 487L224 488L223 487M287 487L288 488L287 487z"/>
<path style="fill:#774d3b; stroke:none;" d="M288 487L289 488L288 487z"/>
<path style="fill:#483936; stroke:none;" d="M289 487L290 488L289 487z"/>
<path style="fill:#774d3b; stroke:none;" d="M374 487L375 488L374 487z"/>
<path style="fill:#a15d3f; stroke:none;" d="M375 487L376 488L375 487z"/>
<path style="fill:#f58149; stroke:none;" d="M443 518L443 679C443 694.458 436.401 727.392 460 727.421C483.599 727.45 477 694.483 477 679L477 518C497.731 518 526.256 523.07 545.999 516.362C557.517 512.448 558.062 494.994 547.985 489.089C536.846 482.563 513.67 487 501 487L419 487C405.662 487 391.219 485.422 378 487.188C362.637 489.241 360.487 511.192 375 516.387C382.465 519.059 391.216 518 399 518L443 518z"/>
<path style="fill:#a15d3f; stroke:none;" d="M544 487L545 488L544 487z"/>
<path style="fill:#774d3b; stroke:none;" d="M545 487L546 488L545 487M605 487L606 488L605 487z"/>
<path style="fill:#a15d3f; stroke:none;" d="M606 487L607 488L606 487z"/>
<path style="fill:#f58149; stroke:none;" d="M629 621L705 621C714.555 621 727.233 620.91 729.656 609C731.449 600.185 726.146 591.411 717 590.188C688.727 586.41 657.546 590 629 590L629 518C662.203 518 695.841 519.585 729 517.96C740.461 517.398 748.856 507.281 744.005 496.001C738.736 483.745 722.755 487 712 487L626 487C615.559 487 601.057 484.627 596.613 497.001C590.977 512.7 595 535.452 595 552L595 670C595 683.985 589.21 714.976 602.043 724.347C612.268 731.814 626.796 725.145 628.696 713C633.265 683.795 629 650.587 629 621z"/>
<path style="fill:#a15d3f; stroke:none;" d="M735 487L736 488L735 487z"/>
<path style="fill:#483936; stroke:none;" d="M736 487L737 488L736 487z"/>
<path style="fill:#774d3b; stroke:none;" d="M841 487L842 488L841 487z"/>
<path style="fill:#483936; stroke:none;" d="M842 487L843 488L842 487z"/>
<path style="fill:#232931; stroke:none;" d="M860 547C874.568 558.783 886.111 579.007 897.373 594C919.826 623.888 942.835 653.388 965.651 683C975.924 696.332 991.162 727.447 1010 726.984C1033.72 726.401 1026 683.687 1026 668L1026 550C1026 533.732 1029.93 511.438 1024.39 496.001C1020.27 484.529 1003.06 483.972 997.97 495.015C991.734 508.546 996 531.302 996 546L996 594L996 669C957.845 624.908 923.87 575.659 888.873 529C879.19 516.09 863.157 483.964 844 487.33C823.565 490.921 831 531.057 831 546L831 663C831 679.154 826.966 701.575 831.804 717C835.524 728.862 853.969 731.233 858.991 718.996C864.363 705.906 860 683.123 860 669L860 621L860 547z"/>
<path style="fill:#483936; stroke:none;" d="M851 487L852 488L851 487z"/>
<path style="fill:#774d3b; stroke:none;" d="M852 487L853 488L852 487z"/>
<path style="fill:#a15d3f; stroke:none;" d="M853 487L854 488L853 487z"/>
<path style="fill:#774d3b; stroke:none;" d="M1005 487L1006 488L1005 487z"/>
<path style="fill:#483936; stroke:none;" d="M1006 487L1007 488L1006 487z"/>
<path style="fill:#774d3b; stroke:none;" d="M1016 487L1017 488L1016 487z"/>
<path style="fill:#a15d3f; stroke:none;" d="M1017 487L1018 488L1017 487z"/>
<path style="fill:#774d3b; stroke:none;" d="M219 488L220 489L219 488z"/>
<path style="fill:#a15d3f; stroke:none;" d="M220 488L221 489L220 488M291 488L292 489L291 488z"/>
<path style="fill:#483936; stroke:none;" d="M292 488L293 489L292 488z"/>
<path style="fill:#774d3b; stroke:none;" d="M372 488L373 489L372 488M547 488L548 489L547 488z"/>
<path style="fill:#483936; stroke:none;" d="M603 488L604 489L603 488z"/>
<path style="fill:#a15d3f; stroke:none;" d="M737 488L738 489L737 488z"/>
<path style="fill:#483936; stroke:none;" d="M738 488L739 489L738 488z"/>
<path style="fill:#a15d3f; stroke:none;" d="M838 488L839 489L838 488z"/>
<path style="fill:#483936; stroke:none;" d="M839 488L840 489L839 488M855 488L856 489L855 488z"/>
<path style="fill:#774d3b; stroke:none;" d="M1003 488L1004 489L1003 488M1018 488L1019 489L1018 488z"/>
<path style="fill:#483936; stroke:none;" d="M216 489L217 490L216 489z"/>
<path style="fill:#a15d3f; stroke:none;" d="M217 489L218 490L217 489M294 489L295 490L294 489z"/>
<path style="fill:#774d3b; stroke:none;" d="M295 489L296 490L295 489z"/>
<path style="fill:#a15d3f; stroke:none;" d="M371 489L372 490L371 489z"/>
<path style="fill:#483936; stroke:none;" d="M549 489L550 490L549 489z"/>
<path style="fill:#a15d3f; stroke:none;" d="M602 489L603 490L602 489z"/>
<path style="fill:#774d3b; stroke:none;" d="M739 489L740 490L739 489M837 489L838 490L837 489M857 489L858 490L857 489z"/>
<path style="fill:#a15d3f; stroke:none;" d="M1001 489L1002 490L1001 489z"/>
<path style="fill:#483936; stroke:none;" d="M1002 489L1003 490L1002 489z"/>
<path style="fill:#a15d3f; stroke:none;" d="M1020 489L1021 490L1020 489z"/>
<path style="fill:#774d3b; stroke:none;" d="M214 490L215 491L214 490z"/>
<path style="fill:#a15d3f; stroke:none;" d="M297 490L298 491L297 490z"/>
<path style="fill:#483936; stroke:none;" d="M298 490L299 491L298 490z"/>
<path style="fill:#774d3b; stroke:none;" d="M369 490L370 491L369 490M550 490L551 491L550 490z"/>
<path style="fill:#483936; stroke:none;" d="M600 490L601 491L600 490z"/>
<path style="fill:#a15d3f; stroke:none;" d="M740 490L741 491L740 490z"/>
<path style="fill:#483936; stroke:none;" d="M836 490L837 491L836 490M858 490L859 491L858 490z"/>
<path style="fill:#a15d3f; stroke:none;" d="M1000 490L1001 491L1000 490z"/>
<path style="fill:#774d3b; stroke:none;" d="M1021 490L1022 491L1021 490z"/>
<path style="fill:#483936; stroke:none;" d="M211 491L212 492L211 491z"/>
<path style="fill:#a15d3f; stroke:none;" d="M212 491L213 492L212 491M299 491L300 492L299 491z"/>
<path style="fill:#774d3b; stroke:none;" d="M300 491L301 492L300 491z"/>
<path style="fill:#483936; stroke:none;" d="M368 491L369 492L368 491z"/>
<path style="fill:#774d3b; stroke:none;" d="M551 491L552 492L551 491z"/>
<path style="fill:#483936; stroke:none;" d="M599 491L600 492L599 491z"/>
<path style="fill:#a15d3f; stroke:none;" d="M741 491L742 492L741 491z"/>
<path style="fill:#483936; stroke:none;" d="M835 491L836 492L835 491M859 491L860 492L859 491z"/>
<path style="fill:#a15d3f; stroke:none;" d="M999 491L1000 492L999 491M1022 491L1023 492L1022 491z"/>
<path style="fill:#483936; stroke:none;" d="M209 492L210 493L209 492z"/>
<path style="fill:#a15d3f; stroke:none;" d="M210 492L211 493L210 492z"/>
<path style="fill:#774d3b; stroke:none;" d="M302 492L303 493L302 492z"/>
<path style="fill:#483936; stroke:none;" d="M367 492L368 493L367 492z"/>
<path style="fill:#774d3b; stroke:none;" d="M552 492L553 493L552 492z"/>
<path style="fill:#483936; stroke:none;" d="M598 492L599 493L598 492z"/>
<path style="fill:#774d3b; stroke:none;" d="M742 492L743 493L742 492z"/>
<path style="fill:#483936; stroke:none;" d="M834 492L835 493L834 492M860 492L861 493L860 492z"/>
<path style="fill:#a15d3f; stroke:none;" d="M998 492L999 493L998 492M1023 492L1024 493L1023 492z"/>
<path style="fill:#483936; stroke:none;" d="M207 493L208 494L207 493z"/>
<path style="fill:#a15d3f; stroke:none;" d="M208 493L209 494L208 493M304 493L305 494L304 493z"/>
<path style="fill:#483936; stroke:none;" d="M743 493L744 494L743 493z"/>
<path style="fill:#a15d3f; stroke:none;" d="M833 493L834 494L833 493z"/>
<path style="fill:#483936; stroke:none;" d="M861 493L862 494L861 493M998 493L999 494L998 493M1023 493L1024 494L1023 493M205 494L206 495L205 494z"/>
<path style="fill:#a15d3f; stroke:none;" d="M206 494L207 495L206 494M306 494L307 495L306 494z"/>
<path style="fill:#774d3b; stroke:none;" d="M366 494L367 495L366 494z"/>
<path style="fill:#a15d3f; stroke:none;" d="M553 494L554 495L553 494M597 494L598 495L597 494M743 494L744 495L743 494M862 494L863 495L862 494M997 494L998 495L997 494M1024 494L1025 495L1024 494z"/>
<path style="fill:#483936; stroke:none;" d="M203 495L204 496L203 495z"/>
<path style="fill:#a15d3f; stroke:none;" d="M204 495L205 496L204 495M308 495L309 496L308 495z"/>
<path style="fill:#483936; stroke:none;" d="M554 495L555 496L554 495M596 495L597 496L596 495M744 495L745 496L744 495z"/>
<path style="fill:#774d3b; stroke:none;" d="M832 495L833 496L832 495z"/>
<path style="fill:#a15d3f; stroke:none;" d="M863 495L864 496L863 495z"/>
<path style="fill:#483936; stroke:none;" d="M997 495L998 496L997 495M1024 495L1025 496L1024 495z"/>
<path style="fill:#774d3b; stroke:none;" d="M202 496L203 497L202 496M310 496L311 497L310 496M365 496L366 497L365 496z"/>
<path style="fill:#a15d3f; stroke:none;" d="M554 496L555 497L554 496M596 496L597 497L596 496M744 496L745 497L744 496M996 496L997 497L996 496M1025.33 496.667L1025.67 497.333L1025.33 496.667z"/>
<path style="fill:#483936; stroke:none;" d="M200 497L201 498L200 497z"/>
<path style="fill:#a15d3f; stroke:none;" d="M201 497L202 498L201 497z"/>
<path style="fill:#774d3b; stroke:none;" d="M312 497L313 498L312 497z"/>
<path style="fill:#a15d3f; stroke:none;" d="M365 497L366 498L365 497M831 497L832 498L831 497z"/>
<path style="fill:#483936; stroke:none;" d="M864 497L865 498L864 497z"/>
<path style="fill:#774d3b; stroke:none;" d="M996.333 497.667L996.667 498.333L996.333 497.667M199 498L200 499L199 498z"/>
<path style="fill:#483936; stroke:none;" d="M314 498L315 499L314 498M595 498L596 499L595 498z"/>
<path style="fill:#774d3b; stroke:none;" d="M745 498L746 499L745 498M831 498L832 499L831 498M865 498L866 499L865 498M1025 498L1026 499L1025 498z"/>
<path style="fill:#a15d3f; stroke:none;" d="M198 499L199 500L198 499M315 499L316 500L315 499z"/>
<path style="fill:#483936; stroke:none;" d="M555 499L556 500L555 499z"/>
<path style="fill:#a15d3f; stroke:none;" d="M595 499L595 502L596 502L595 499M745 499L745 502L746 502L745 499z"/>
<path style="fill:#483936; stroke:none;" d="M831 499L832 500L831 499z"/>
<path style="fill:#a15d3f; stroke:none;" d="M866 499L867 500L866 499z"/>
<path style="fill:#483936; stroke:none;" d="M996 499L997 500L996 499M1025.33 499.667L1025.67 500.333L1025.33 499.667M196 500L197 501L196 500M317 500L318 501L317 500M364 500L364 504L365 504L364 500z"/>
<path style="fill:#774d3b; stroke:none;" d="M555 500C556.187 508.488 550.647 516.109 542 517.671C521.945 521.292 498.395 518 478 518L478 679C478 696.689 483.767 727.451 458 728C461.193 748.458 489.409 746.565 492.56 727C495.892 706.312 493 682.959 493 662L493 533C513.192 533 539.514 537.494 559 532.235C569.174 529.49 573.698 516.732 567.347 508.044C564.278 503.846 559.243 502.615 555 500M195 501L196 502L195 501z"/>
<path style="fill:#a15d3f; stroke:none;" d="M318 501L319 502L318 501z"/>
<path style="fill:#483936; stroke:none;" d="M867 501L868 502L867 501z"/>
<path style="fill:#774d3b; stroke:none;" d="M194 502L195 503L194 502z"/>
<path style="fill:#483936; stroke:none;" d="M320 502L321 503L320 502z"/>
<path style="fill:#a15d3f; stroke:none;" d="M555 502L555 506L556 506L555 502z"/>
<path style="fill:#483936; stroke:none;" d="M559.667 502.333L560.333 502.667L559.667 502.333z"/>
<path style="fill:#774d3b; stroke:none;" d="M746 502C744.521 516.346 730.976 518.999 719 519L629 519L629 589L644 589L644 533L715 533C725.664 533 738.617 534.991 749 532.467C767.135 528.059 762.418 504.47 746 502z"/>
<path style="fill:#483936; stroke:none;" d="M749.667 502.333L750.333 502.667L749.667 502.333z"/>
<path style="fill:#774d3b; stroke:none;" d="M868 502L869 503L868 502z"/>
<path style="fill:#a15d3f; stroke:none;" d="M1026 502L1026 678C1026 695.277 1031.95 733.889 1003 727C1010.6 739.2 1036.29 754.264 1040.67 730C1043.9 712.118 1041 691.181 1041 673L1041 557C1041 541.453 1048.6 503.05 1026 502M193 503L194 504L193 503z"/>
<path style="fill:#774d3b; stroke:none;" d="M321 503L322 504L321 503z"/>
<path style="fill:#483936; stroke:none;" d="M562 503L563 504L562 503M752 503L753 504L752 503z"/>
<path style="fill:#774d3b; stroke:none;" d="M869 503L870 504L869 503z"/>
<path style="fill:#a15d3f; stroke:none;" d="M870 503L892.627 534L943.116 600L976.627 644L996 668C994.105 653.812 975.45 637.228 966.884 626C944.751 596.989 922.829 567.801 900.424 539C891.758 527.859 882.699 509.606 870 503M192 504L193 505L192 504z"/>
<path style="fill:#774d3b; stroke:none;" d="M322 504L323 505L322 504z"/>
<path style="fill:#a15d3f; stroke:none;" d="M745 504L745 507L746 507L745 504z"/>
<path style="fill:#483936; stroke:none;" d="M754 504L755 505L754 504z"/>
<path style="fill:#a15d3f; stroke:none;" d="M191 505L192 506L191 505z"/>
<path style="fill:#774d3b; stroke:none;" d="M323 505L324 506L323 505z"/>
<path style="fill:#483936; stroke:none;" d="M565 505L566 506L565 505M755 505L756 506L755 505z"/>
<path style="fill:#a15d3f; stroke:none;" d="M324 506L325 507L324 506M365 506L366 507L365 506z"/>
<path style="fill:#483936; stroke:none;" d="M566 506L567 507L566 506M871 506L872 507L871 506M188 507L189 508L188 507z"/>
<path style="fill:#a15d3f; stroke:none;" d="M325 507L326 508L325 507z"/>
<path style="fill:#774d3b; stroke:none;" d="M365 507L366 508L365 507z"/>
<path style="fill:#483936; stroke:none;" d="M567 507L568 508L567 507M757 507L758 508L757 507z"/>
<path style="fill:#774d3b; stroke:none;" d="M872 507L873 508L872 507z"/>
<path style="fill:#a15d3f; stroke:none;" d="M326 508L327 509L326 508M554 508L555 509L554 508M744 508L745 509L744 508z"/>
<path style="fill:#483936; stroke:none;" d="M758 508L759 509L758 508z"/>
<path style="fill:#774d3b; stroke:none;" d="M873 508L874 509L873 508z"/>
<path style="fill:#a15d3f; stroke:none;" d="M187 509L188 510L187 509M327 509L328 510L327 509M366 509L367 510L366 509z"/>
<path style="fill:#483936; stroke:none;" d="M568 509L569 510L568 509z"/>
<path style="fill:#774d3b; stroke:none;" d="M186 510L187 511L186 510z"/>
<path style="fill:#a15d3f; stroke:none;" d="M328 510L329 511L328 510z"/>
<path style="fill:#483936; stroke:none;" d="M366 510L367 511L366 510z"/>
<path style="fill:#a15d3f; stroke:none;" d="M553 510L554 511L553 510z"/>
<path style="fill:#483936; stroke:none;" d="M569.333 510.667L569.667 511.333L569.333 510.667z"/>
<path style="fill:#a15d3f; stroke:none;" d="M743 510L744 511L743 510z"/>
<path style="fill:#483936; stroke:none;" d="M759 510L760 511L759 510M874 510L875 511L874 510M185 511L186 512L185 511z"/>
<path style="fill:#a15d3f; stroke:none;" d="M329 511L330 512L329 511z"/>
<path style="fill:#774d3b; stroke:none;" d="M367 511L368 512L367 511M875 511L876 512L875 511z"/>
<path style="fill:#483936; stroke:none;" d="M184 512L185 513L184 512z"/>
<path style="fill:#774d3b; stroke:none;" d="M330 512L331 513L330 512M368 512L369 513L368 512z"/>
<path style="fill:#483936; stroke:none;" d="M760.333 512.667L760.667 513.333L760.333 512.667z"/>
<path style="fill:#774d3b; stroke:none;" d="M876 512L877 513L876 512z"/>
<path style="fill:#483936; stroke:none;" d="M331 513L332 514L331 513z"/>
<path style="fill:#a15d3f; stroke:none;" d="M369 513L370 514L369 513z"/>
<path style="fill:#483936; stroke:none;" d="M570 513L570 522L571 522L570 513z"/>
<path style="fill:#a15d3f; stroke:none;" d="M183 514L184 515L183 514M331 514L332 515L331 514z"/>
<path style="fill:#774d3b; stroke:none;" d="M370 514L371 515L370 514z"/>
<path style="fill:#483936; stroke:none;" d="M877 514L878 515L877 514M182 515L183 516L182 515z"/>
<path style="fill:#a15d3f; stroke:none;" d="M242 515L242 516L246 516L242 515z"/>
<path style="fill:#774d3b; stroke:none;" d="M222 576C220.965 570.985 219.545 566.175 220.301 561C225.381 526.228 275.279 525.682 300 535.861C310.527 540.196 322.023 552.477 333 553.656C343.917 554.828 351.415 542.785 348.347 533C346.314 526.513 339.359 520.775 334 517C334.332 526.592 330.706 539.994 318 538.743C309.21 537.878 300.891 528.096 293 524.259C274.782 515.402 253.687 512.289 234 517.745C224.418 520.401 214.785 525.218 209.479 534C201.19 547.72 205.755 570.477 222 576z"/>
<path style="fill:#a15d3f; stroke:none;" d="M262 515L262 516L266 516L262 515z"/>
<path style="fill:#774d3b; stroke:none;" d="M332 515L333 516L332 515z"/>
<path style="fill:#483936; stroke:none;" d="M371 515L372 516L371 515z"/>
<path style="fill:#a15d3f; stroke:none;" d="M372 515L373 516L372 515M548 515L549 516L548 515M738 515L739 516L738 515z"/>
<path style="fill:#483936; stroke:none;" d="M878 515L879 516L878 515z"/>
<path style="fill:#a15d3f; stroke:none;" d="M238.667 516.333L239.333 516.667L238.667 516.333M270.667 516.333L271.333 516.667L270.667 516.333z"/>
<path style="fill:#483936; stroke:none;" d="M333 516L334 517L333 516M373 516L374 517L373 516z"/>
<path style="fill:#a15d3f; stroke:none;" d="M374 516L375 517L374 516M546 516L547 517L546 516M736 516L737 517L736 516z"/>
<path style="fill:#774d3b; stroke:none;" d="M879 516L880 517L879 516M181 517L182 518L181 517z"/>
<path style="fill:#a15d3f; stroke:none;" d="M233.667 517.333L234.333 517.667L233.667 517.333M274.667 517.333L275.333 517.667L274.667 517.333M333.333 517.667L333.667 518.333L333.333 517.667z"/>
<path style="fill:#483936; stroke:none;" d="M376 517L377 518L376 517z"/>
<path style="fill:#774d3b; stroke:none;" d="M377 517L378 518L377 517z"/>
<path style="fill:#a15d3f; stroke:none;" d="M378.667 517.333L379.333 517.667L378.667 517.333M540 517L540 518L544 518L540 517M733.667 517.333L734.333 517.667L733.667 517.333z"/>
<path style="fill:#483936; stroke:none;" d="M180 518L181 519L180 518z"/>
<path style="fill:#a15d3f; stroke:none;" d="M230.667 518.333L231.333 518.667L230.667 518.333M278 518L279 519L278 518z"/>
<path style="fill:#483936; stroke:none;" d="M336 518L337 519L336 518z"/>
<path style="fill:#774d3b; stroke:none;" d="M380 518C384.869 541.205 423.939 533 442 533L442 518L380 518z"/>
<path style="fill:#a15d3f; stroke:none;" d="M442 518L442 712L443 712L443 576L443 537L442 518M477 518L477 715L478 715L478 577L478 537L477 518M629 518L629 519L730 519L699 518L629 518z"/>
<path style="fill:#483936; stroke:none;" d="M880 518L881 519L880 518z"/>
<path style="fill:#a15d3f; stroke:none;" d="M180 519L181 520L180 519M227.667 519.333L228.333 519.667L227.667 519.333M281 519L282 520L281 519z"/>
<path style="fill:#483936; stroke:none;" d="M337 519L338 520L337 519M881 519L882 520L881 519M179 520L180 521L179 520z"/>
<path style="fill:#a15d3f; stroke:none;" d="M225 520L226 521L225 520M283.667 520.333L284.333 520.667L283.667 520.333z"/>
<path style="fill:#483936; stroke:none;" d="M338 520L339 521L338 520M380.333 520.667L380.667 521.333L380.333 520.667z"/>
<path style="fill:#774d3b; stroke:none;" d="M882 520L883 521L882 520z"/>
<path style="fill:#a15d3f; stroke:none;" d="M223 521L224 522L223 521M286 521L287 522L286 521z"/>
<path style="fill:#483936; stroke:none;" d="M339 521L340 522L339 521M760.333 521.667L760.667 522.333L760.333 521.667z"/>
<path style="fill:#774d3b; stroke:none;" d="M178 522L179 523L178 522z"/>
<path style="fill:#a15d3f; stroke:none;" d="M289 522L290 523L289 522M334 522L334 525L335 525L334 522z"/>
<path style="fill:#483936; stroke:none;" d="M340 522L341 523L340 522z"/>
<path style="fill:#a15d3f; stroke:none;" d="M220 523L221 524L220 523M291 523L292 524L291 523z"/>
<path style="fill:#483936; stroke:none;" d="M341 523L342 524L341 523M569.333 523.667L569.667 524.333L569.333 523.667M884 523L885 524L884 523M177 524L178 525L177 524z"/>
<path style="fill:#a15d3f; stroke:none;" d="M218 524L219 525L218 524M293 524L294 525L293 524z"/>
<path style="fill:#483936; stroke:none;" d="M342 524L343 525L342 524M381 524L382 525L381 524M759 524L760 525L759 524z"/>
<path style="fill:#774d3b; stroke:none;" d="M885 524L886 525L885 524z"/>
<path style="fill:#a15d3f; stroke:none;" d="M177 525L178 526L177 525M217 525L218 526L217 525M295 525L296 526L295 525z"/>
<path style="fill:#483936; stroke:none;" d="M343 525L344 526L343 525M568 525L569 526L568 525z"/>
<path style="fill:#774d3b; stroke:none;" d="M886 525L887 526L886 525z"/>
<path style="fill:#a15d3f; stroke:none;" d="M297 526L298 527L297 526z"/>
<path style="fill:#483936; stroke:none;" d="M344 526L345 527L344 526M382 526L383 527L382 526z"/>
<path style="fill:#774d3b; stroke:none;" d="M176 527L177 528L176 527z"/>
<path style="fill:#a15d3f; stroke:none;" d="M214 527L215 528L214 527M299 527L300 528L299 527M333.333 527.667L333.667 528.333L333.333 527.667z"/>
<path style="fill:#483936; stroke:none;" d="M345 527L346 528L345 527M383 527L384 528L383 527M567 527L568 528L567 527M887 527L888 528L887 527z"/>
<path style="fill:#a15d3f; stroke:none;" d="M213 528L214 529L213 528M300 528L301 529L300 528z"/>
<path style="fill:#483936; stroke:none;" d="M384 528L385 529L384 528M566 528L567 529L566 528M756 528L757 529L756 528z"/>
<path style="fill:#774d3b; stroke:none;" d="M888 528L889 529L888 528z"/>
<path style="fill:#483936; stroke:none;" d="M175 529L176 530L175 529z"/>
<path style="fill:#a15d3f; stroke:none;" d="M302 529L303 530L302 529z"/>
<path style="fill:#483936; stroke:none;" d="M385 529L386 530L385 529M565 529L566 530L565 529M755 529L756 530L755 529z"/>
<path style="fill:#774d3b; stroke:none;" d="M889 529L890 530L889 529z"/>
<path style="fill:#a15d3f; stroke:none;" d="M175 530L176 531L175 530z"/>
<path style="fill:#483936; stroke:none;" d="M259 530L259 531L266 531L259 530M274 530L274 531L280 531L274 530z"/>
<path style="fill:#a15d3f; stroke:none;" d="M303 530L304 531L303 530M332 530L333 531L332 530z"/>
<path style="fill:#483936; stroke:none;" d="M347 530L348 531L347 530M386 530L387 531L386 530M254.667 531.333L255.333 531.667L254.667 531.333M284.667 531.333L285.333 531.667L284.667 531.333M388 531L389 532L388 531M561.667 531.333L562.333 531.667L561.667 531.333M752 531L753 532L752 531M890 531L891 532L890 531M174 532L175 533L174 532z"/>
<path style="fill:#a15d3f; stroke:none;" d="M210 532L211 533L210 532z"/>
<path style="fill:#483936; stroke:none;" d="M249.667 532.333L250.333 532.667L249.667 532.333M288.667 532.333L289.333 532.667L288.667 532.333z"/>
<path style="fill:#a15d3f; stroke:none;" d="M306 532L307 533L306 532z"/>
<path style="fill:#483936; stroke:none;" d="M348 532L349 533L348 532M391.667 532.333L392.333 532.667L391.667 532.333M558.667 532.333L559.333 532.667L558.667 532.333M749.667 532.333L750.333 532.667L749.667 532.333M891 532L892 533L891 532z"/>
<path style="fill:#774d3b; stroke:none;" d="M174 533L175 534L174 533z"/>
<path style="fill:#a15d3f; stroke:none;" d="M209 533L210 534L209 533z"/>
<path style="fill:#483936; stroke:none;" d="M246.667 533.333L247.333 533.667L246.667 533.333M292.667 533.333L293.333 533.667L292.667 533.333z"/>
<path style="fill:#a15d3f; stroke:none;" d="M307 533L308 534L307 533M330 533L331 534L330 533z"/>
<path style="fill:#483936; stroke:none;" d="M644 533L644 534L746 534L715 533L644 533z"/>
<path style="fill:#774d3b; stroke:none;" d="M892 533L893 534L892 533z"/>
<path style="fill:#a15d3f; stroke:none;" d="M174 534L175 535L174 534z"/>
<path style="fill:#483936; stroke:none;" d="M243.667 534.333L244.333 534.667L243.667 534.333M295.667 534.333L296.333 534.667L295.667 534.333z"/>
<path style="fill:#a15d3f; stroke:none;" d="M308 534L309 535L308 534M329 534L330 535L329 534M208 535L209 536L208 535z"/>
<path style="fill:#483936; stroke:none;" d="M241 535L242 536L241 535M298.667 535.333L299.333 535.667L298.667 535.333M893 535L894 536L893 535M173 536L174 537L173 536M239 536L240 537L239 536M301 536L302 537L301 536z"/>
<path style="fill:#a15d3f; stroke:none;" d="M311 536L312 537L311 536M326 536L327 537L326 536z"/>
<path style="fill:#483936; stroke:none;" d="M349 536L349 541L350 541L349 536M894 536L895 537L894 536z"/>
<path style="fill:#774d3b; stroke:none;" d="M173 537L174 538L173 537z"/>
<path style="fill:#a15d3f; stroke:none;" d="M207 537L208 538L207 537z"/>
<path style="fill:#483936; stroke:none;" d="M237 537L238 538L237 537M303 537L304 538L303 537z"/>
<path style="fill:#a15d3f; stroke:none;" d="M313 537L314 538L313 537M324 537L325 538L324 537z"/>
<path style="fill:#774d3b; stroke:none;" d="M895 537L896 538L895 537z"/>
<path style="fill:#a15d3f; stroke:none;" d="M173.333 538.667L173.667 539.333L173.333 538.667z"/>
<path style="fill:#483936; stroke:none;" d="M235 538L236 539L235 538M306 538L307 539L306 538z"/>
<path style="fill:#a15d3f; stroke:none;" d="M315 538L315 539L318 539L315 538M320 538L320 539L323 539L320 538z"/>
<path style="fill:#483936; stroke:none;" d="M308 539L309 540L308 539M896 539L897 540L896 539z"/>
<path style="fill:#a15d3f; stroke:none;" d="M206 540L207 541L206 540z"/>
<path style="fill:#483936; stroke:none;" d="M232 540L233 541L232 540M310 540L311 541L310 540M897 540L898 541L897 540M231 541L232 542L231 541M312 541L313 542L312 541z"/>
<path style="fill:#774d3b; stroke:none;" d="M898 541L899 542L898 541z"/>
<path style="fill:#483936; stroke:none;" d="M172 542L172 545L173 545L172 542z"/>
<path style="fill:#774d3b; stroke:none;" d="M899 542L900 543L899 542z"/>
<path style="fill:#a15d3f; stroke:none;" d="M205 543L205 548L206 548L205 543z"/>
<path style="fill:#483936; stroke:none;" d="M315 543L316 544L315 543M348 543L349 544L348 543M900 544L901 545L900 544z"/>
<path style="fill:#774d3b; stroke:none;" d="M172 545L172 548L173 548L172 545z"/>
<path style="fill:#483936; stroke:none;" d="M318 545L319 546L318 545M347 545L348 546L347 545z"/>
<path style="fill:#774d3b; stroke:none;" d="M901 545L902 546L901 545z"/>
<path style="fill:#483936; stroke:none;" d="M226 546L227 547L226 546z"/>
<path style="fill:#774d3b; stroke:none;" d="M902 546L903 547L902 546z"/>
<path style="fill:#483936; stroke:none;" d="M225 547L226 548L225 547M321 547L322 548L321 547M346 547L347 548L346 547M860 547L860 716L861 716L861 597C861 582.962 865.406 559.883 860 547z"/>
<path style="fill:#774d3b; stroke:none;" d="M861 547L862 548L861 547z"/>
<path style="fill:#a15d3f; stroke:none;" d="M172 548L172 555L173 555L172 548z"/>
<path style="fill:#483936; stroke:none;" d="M322 548L323 549L322 548M345 548L346 549L345 548z"/>
<path style="fill:#a15d3f; stroke:none;" d="M861 548L861 685C861 699.871 866.138 724.968 846 728C847.259 742.31 867.245 749.84 874.427 734.996C879.985 723.512 876 702.616 876 690L876 600C876 579.247 878.121 562.962 861 548z"/>
<path style="fill:#483936; stroke:none;" d="M862 548L863 549L862 548M903 548L904 549L903 548M224 549L225 550L224 549M323 549L324 550L323 549M344 549L345 550L344 549z"/>
<path style="fill:#774d3b; stroke:none;" d="M904 549L905 550L904 549z"/>
<path style="fill:#483936; stroke:none;" d="M343 550L344 551L343 550z"/>
<path style="fill:#774d3b; stroke:none;" d="M863 550L864 551L863 550M905 550L906 551L905 550z"/>
<path style="fill:#a15d3f; stroke:none;" d="M205 551L205 556L206 556L205 551z"/>
<path style="fill:#483936; stroke:none;" d="M223 551L224 552L223 551M326 551L327 552L326 551M342 551L343 552L342 551z"/>
<path style="fill:#774d3b; stroke:none;" d="M864 551L865 552L864 551z"/>
<path style="fill:#483936; stroke:none;" d="M340 552L341 553L340 552M865 552L866 553L865 552M906 552L907 553L906 552M222 553L223 554L222 553M330.667 553.333L331.333 553.667L330.667 553.333M337 553L338 554L337 553M866 553L867 554L866 553M907 553L908 554L907 553z"/>
<path style="fill:#774d3b; stroke:none;" d="M908 554L909 555L908 554M172 555L172 559L173 559L172 555z"/>
<path style="fill:#483936; stroke:none;" d="M221.333 555.667L221.667 556.333L221.333 555.667z"/>
<path style="fill:#774d3b; stroke:none;" d="M867 555L868 556L867 555z"/>
<path style="fill:#483936; stroke:none;" d="M868 556L869 557L868 556M909 556L910 557L909 556M869 557L870 558L869 557M910 557L911 558L910 557z"/>
<path style="fill:#a15d3f; stroke:none;" d="M206.333 558.667L206.667 559.333L206.333 558.667z"/>
<path style="fill:#774d3b; stroke:none;" d="M911 558L912 559L911 558z"/>
<path style="fill:#483936; stroke:none;" d="M172 559L173 560L172 559M220 559L220 570L221 570L220 559z"/>
<path style="fill:#774d3b; stroke:none;" d="M870 559L871 560L870 559M871 560L872 561L871 560z"/>
<path style="fill:#a15d3f; stroke:none;" d="M207 561L208 562L207 561z"/>
<path style="fill:#483936; stroke:none;" d="M872 561L873 562L872 561M913 561L914 562L913 561z"/>
<path style="fill:#a15d3f; stroke:none;" d="M173.333 562.667L173.667 563.333L173.333 562.667z"/>
<path style="fill:#774d3b; stroke:none;" d="M914 562L915 563L914 562M873 563L874 564L873 563M915 563L916 564L915 563M173 564L174 565L173 564M874 564L875 565L874 564z"/>
<path style="fill:#483936; stroke:none;" d="M173 565L174 566L173 565z"/>
<path style="fill:#a15d3f; stroke:none;" d="M209 565L210 566L209 565z"/>
<path style="fill:#483936; stroke:none;" d="M875 565L876 566L875 565M916 565L917 566L916 565M876 566L877 567L876 566z"/>
<path style="fill:#774d3b; stroke:none;" d="M917 566L918 567L917 566z"/>
<path style="fill:#a15d3f; stroke:none;" d="M174 567L175 568L174 567M210 567L211 568L210 567z"/>
<path style="fill:#774d3b; stroke:none;" d="M918 567L919 568L918 567M174 568L175 569L174 568z"/>
<path style="fill:#a15d3f; stroke:none;" d="M211 568L212 569L211 568M877 568L878 569L877 568z"/>
<path style="fill:#483936; stroke:none;" d="M174 569L175 570L174 569z"/>
<path style="fill:#a15d3f; stroke:none;" d="M212 569L213 570L212 569z"/>
<path style="fill:#774d3b; stroke:none;" d="M878 569L879 570L878 569z"/>
<path style="fill:#483936; stroke:none;" d="M919 569L920 570L919 569z"/>
<path style="fill:#a15d3f; stroke:none;" d="M213 570L214 571L213 570z"/>
<path style="fill:#483936; stroke:none;" d="M879 570L880 571L879 570M920 570L921 571L920 570z"/>
<path style="fill:#a15d3f; stroke:none;" d="M175 571L176 572L175 571M214 571L215 572L214 571z"/>
<path style="fill:#774d3b; stroke:none;" d="M921 571L922 572L921 571M175 572L176 573L175 572z"/>
<path style="fill:#a15d3f; stroke:none;" d="M215 572L216 573L215 572M880 572L881 573L880 572M216 573L217 574L216 573z"/>
<path style="fill:#483936; stroke:none;" d="M221 573L222 574L221 573z"/>
<path style="fill:#a15d3f; stroke:none;" d="M881 573L882 574L881 573z"/>
<path style="fill:#483936; stroke:none;" d="M922 573L923 574L922 573z"/>
<path style="fill:#a15d3f; stroke:none;" d="M176 574L177 575L176 574z"/>
<path style="fill:#483936; stroke:none;" d="M882 574L883 575L882 574M923 574L924 575L923 574z"/>
<path style="fill:#774d3b; stroke:none;" d="M176 575L177 576L176 575z"/>
<path style="fill:#a15d3f; stroke:none;" d="M219 575L220 576L219 575z"/>
<path style="fill:#483936; stroke:none;" d="M883 575L884 576L883 575z"/>
<path style="fill:#774d3b; stroke:none;" d="M924 575L925 576L924 575z"/>
<path style="fill:#a15d3f; stroke:none;" d="M221 576L222 577L221 576z"/>
<path style="fill:#483936; stroke:none;" d="M222 576L223 577L222 576z"/>
<path style="fill:#a15d3f; stroke:none;" d="M883 576L884 577L883 576M177 577L178 578L177 577z"/>
<path style="fill:#774d3b; stroke:none;" d="M223 577L224 578L223 577z"/>
<path style="fill:#a15d3f; stroke:none;" d="M884 577L885 578L884 577M224 578L225 579L224 578z"/>
<path style="fill:#483936; stroke:none;" d="M225 578L226 579L225 578z"/>
<path style="fill:#774d3b; stroke:none;" d="M885 578L886 579L885 578z"/>
<path style="fill:#483936; stroke:none;" d="M926 578L927 579L926 578z"/>
<path style="fill:#a15d3f; stroke:none;" d="M178 579L179 580L178 579M226 579L227 580L226 579z"/>
<path style="fill:#483936; stroke:none;" d="M227 579L228 580L227 579M886 579L887 580L886 579z"/>
<path style="fill:#774d3b; stroke:none;" d="M927 579L928 580L927 579M229 580L230 581L229 580M928 580L929 581L928 580z"/>
<path style="fill:#a15d3f; stroke:none;" d="M179 581L180 582L179 581M231 581L232 582L231 581z"/>
<path style="fill:#483936; stroke:none;" d="M232 581L233 582L232 581z"/>
<path style="fill:#a15d3f; stroke:none;" d="M887 581L888 582L887 581M233 582L234 583L233 582z"/>
<path style="fill:#483936; stroke:none;" d="M234 582L235 583L234 582z"/>
<path style="fill:#774d3b; stroke:none;" d="M888 582L889 583L888 582z"/>
<path style="fill:#483936; stroke:none;" d="M929 582L930 583L929 582z"/>
<path style="fill:#774d3b; stroke:none;" d="M180 583L181 584L180 583z"/>
<path style="fill:#a15d3f; stroke:none;" d="M236 583L237 584L236 583z"/>
<path style="fill:#483936; stroke:none;" d="M237 583L238 584L237 583M889 583L890 584L889 583z"/>
<path style="fill:#774d3b; stroke:none;" d="M930 583L931 584L930 583z"/>
<path style="fill:#a15d3f; stroke:none;" d="M181 584L182 585L181 584M239 584L240 585L239 584z"/>
<path style="fill:#483936; stroke:none;" d="M240 584L241 585L240 584z"/>
<path style="fill:#774d3b; stroke:none;" d="M931 584L932 585L931 584z"/>
<path style="fill:#483936; stroke:none;" d="M181 585L182 586L181 585z"/>
<path style="fill:#a15d3f; stroke:none;" d="M242 585L243 586L242 585z"/>
<path style="fill:#483936; stroke:none;" d="M243 585L244 586L243 585z"/>
<path style="fill:#a15d3f; stroke:none;" d="M890 585L891 586L890 585z"/>
<path style="fill:#774d3b; stroke:none;" d="M182 586L183 587L182 586z"/>
<path style="fill:#a15d3f; stroke:none;" d="M245 586L246 587L245 586z"/>
<path style="fill:#483936; stroke:none;" d="M246 586L247 587L246 586z"/>
<path style="fill:#774d3b; stroke:none;" d="M891 586L892 587L891 586z"/>
<path style="fill:#483936; stroke:none;" d="M932 586L933 587L932 586z"/>
<path style="fill:#a15d3f; stroke:none;" d="M183 587L184 588L183 587M248 587L249 588L248 587z"/>
<path style="fill:#774d3b; stroke:none;" d="M249 587L250 588L249 587z"/>
<path style="fill:#483936; stroke:none;" d="M892 587L893 588L892 587M933 587L934 588L933 587z"/>
<path style="fill:#a15d3f; stroke:none;" d="M252 588L253 589L252 588z"/>
<path style="fill:#483936; stroke:none;" d="M253 588L254 589L253 588M893 588L894 589L893 588z"/>
<path style="fill:#774d3b; stroke:none;" d="M934 588L935 589L934 588z"/>
<path style="fill:#483936; stroke:none;" d="M184 589L185 590L184 589z"/>
<path style="fill:#a15d3f; stroke:none;" d="M255 589L256 590L255 589z"/>
<path style="fill:#774d3b; stroke:none;" d="M256 589L257 590L256 589z"/>
<path style="fill:#483936; stroke:none;" d="M257 589L258 590L257 589z"/>
<path style="fill:#a15d3f; stroke:none;" d="M629 589L629 590L714 590L688 589L629 589z"/>
<path style="fill:#774d3b; stroke:none;" d="M714 589L714 590L717 590L714 589z"/>
<path style="fill:#483936; stroke:none;" d="M717 589L718 590L717 589z"/>
<path style="fill:#a15d3f; stroke:none;" d="M893 589L894 590L893 589z"/>
<path style="fill:#483936; stroke:none;" d="M185 590L186 591L185 590z"/>
<path style="fill:#a15d3f; stroke:none;" d="M259 590L260 591L259 590z"/>
<path style="fill:#774d3b; stroke:none;" d="M260 590L261 591L260 590z"/>
<path style="fill:#483936; stroke:none;" d="M261 590L262 591L261 590z"/>
<path style="fill:#a15d3f; stroke:none;" d="M719 590L720 591L719 590z"/>
<path style="fill:#774d3b; stroke:none;" d="M720 590L721 591L720 590z"/>
<path style="fill:#a15d3f; stroke:none;" d="M894 590L895 591L894 590z"/>
<path style="fill:#483936; stroke:none;" d="M935 590L936 591L935 590z"/>
<path style="fill:#774d3b; stroke:none;" d="M186 591L187 592L186 591z"/>
<path style="fill:#a15d3f; stroke:none;" d="M263.667 591.333L264.333 591.667L263.667 591.333z"/>
<path style="fill:#483936; stroke:none;" d="M265 591L266 592L265 591z"/>
<path style="fill:#774d3b; stroke:none;" d="M722 591L723 592L722 591M895 591L896 592L895 591z"/>
<path style="fill:#483936; stroke:none;" d="M936 591L937 592L936 591z"/>
<path style="fill:#a15d3f; stroke:none;" d="M187 592L188 593L187 592M268 592L269 593L268 592z"/>
<path style="fill:#774d3b; stroke:none;" d="M269 592L270 593L269 592z"/>
<path style="fill:#a15d3f; stroke:none;" d="M723 592L724 593L723 592z"/>
<path style="fill:#483936; stroke:none;" d="M896 592L897 593L896 592z"/>
<path style="fill:#774d3b; stroke:none;" d="M937 592L938 593L937 592z"/>
<path style="fill:#a15d3f; stroke:none;" d="M188 593L189 594L188 593M272 593L273 594L272 593z"/>
<path style="fill:#483936; stroke:none;" d="M273 593L274 594L273 593M725 593L726 594L725 593z"/>
<path style="fill:#a15d3f; stroke:none;" d="M189 594L190 595L189 594M275 594L276 595L275 594z"/>
<path style="fill:#774d3b; stroke:none;" d="M276 594L277 595L276 594z"/>
<path style="fill:#483936; stroke:none;" d="M277 594L278 595L277 594M726 594L727 595L726 594z"/>
<path style="fill:#a15d3f; stroke:none;" d="M897 594L898 595L897 594z"/>
<path style="fill:#483936; stroke:none;" d="M938 594L939 595L938 594z"/>
<path style="fill:#a15d3f; stroke:none;" d="M190 595L191 596L190 595M279 595L280 596L279 595z"/>
<path style="fill:#774d3b; stroke:none;" d="M280 595L281 596L280 595M898 595L899 596L898 595z"/>
<path style="fill:#483936; stroke:none;" d="M939 595L940 596L939 595z"/>
<path style="fill:#a15d3f; stroke:none;" d="M191 596L192 597L191 596M282 596L283 597L282 596z"/>
<path style="fill:#774d3b; stroke:none;" d="M283 596L284 597L283 596z"/>
<path style="fill:#483936; stroke:none;" d="M284 596L285 597L284 596z"/>
<path style="fill:#a15d3f; stroke:none;" d="M727 596L728 597L727 596z"/>
<path style="fill:#483936; stroke:none;" d="M899 596L900 597L899 596z"/>
<path style="fill:#774d3b; stroke:none;" d="M940 596L941 597L940 596M192 597L193 598L192 597z"/>
<path style="fill:#a15d3f; stroke:none;" d="M286 597L287 598L286 597z"/>
<path style="fill:#483936; stroke:none;" d="M287 597L288 598L287 597M728 597L729 598L728 597z"/>
<path style="fill:#774d3b; stroke:none;" d="M941 597L942 598L941 597z"/>
<path style="fill:#483936; stroke:none;" d="M193 598L194 599L193 598z"/>
<path style="fill:#774d3b; stroke:none;" d="M289 598L290 599L289 598z"/>
<path style="fill:#483936; stroke:none;" d="M290 598L291 599L290 598z"/>
<path style="fill:#a15d3f; stroke:none;" d="M900 598L901 599L900 598M195 599L196 600L195 599M291 599L292 600L291 599z"/>
<path style="fill:#774d3b; stroke:none;" d="M292 599L293 600L292 599z"/>
<path style="fill:#483936; stroke:none;" d="M729 599L730 600L729 599z"/>
<path style="fill:#774d3b; stroke:none;" d="M901 599L902 600L901 599z"/>
<path style="fill:#483936; stroke:none;" d="M942 599L943 600L942 599z"/>
<path style="fill:#774d3b; stroke:none;" d="M196 600L197 601L196 600z"/>
<path style="fill:#a15d3f; stroke:none;" d="M294 600L295 601L294 600z"/>
<path style="fill:#483936; stroke:none;" d="M295 600L296 601L295 600z"/>
<path style="fill:#a15d3f; stroke:none;" d="M729 600L730 601L729 600z"/>
<path style="fill:#483936; stroke:none;" d="M902 600L903 601L902 600z"/>
<path style="fill:#774d3b; stroke:none;" d="M943 600L944 601L943 600z"/>
<path style="fill:#483936; stroke:none;" d="M197 601L198 602L197 601z"/>
<path style="fill:#a15d3f; stroke:none;" d="M296 601L297 602L296 601z"/>
<path style="fill:#774d3b; stroke:none;" d="M297 601L298 602L297 601M944 601L945 602L944 601M198 602C220.44 633.856 268.697 635.153 302 649C288.415 625.498 254.455 623.435 231 616.576C219.063 613.085 209.119 607.197 198 602z"/>
<path style="fill:#a15d3f; stroke:none;" d="M199 602L200 603L199 602M299 602L300 603L299 602z"/>
<path style="fill:#483936; stroke:none;" d="M300 602L301 603L300 602z"/>
<path style="fill:#a15d3f; stroke:none;" d="M903 602L904 603L903 602M301 603L302 604L301 603z"/>
<path style="fill:#774d3b; stroke:none;" d="M302 603L303 604L302 603z"/>
<path style="fill:#483936; stroke:none;" d="M730.333 603.667L730.667 604.333L730.333 603.667z"/>
<path style="fill:#a15d3f; stroke:none;" d="M904 603L905 604L904 603z"/>
<path style="fill:#483936; stroke:none;" d="M945 603L946 604L945 603z"/>
<path style="fill:#a15d3f; stroke:none;" d="M202 604L203 605L202 604z"/>
<path style="fill:#774d3b; stroke:none;" d="M304 604L305 605L304 604M905 604L906 605L905 604z"/>
<path style="fill:#483936; stroke:none;" d="M946 604L947 605L946 604M200 605L201 606L200 605z"/>
<path style="fill:#a15d3f; stroke:none;" d="M204 605L205 606L204 605M305 605L306 606L305 605z"/>
<path style="fill:#483936; stroke:none;" d="M306 605L307 606L306 605z"/>
<path style="fill:#a15d3f; stroke:none;" d="M730 605L730 608L731 608L730 605z"/>
<path style="fill:#774d3b; stroke:none;" d="M731 605C727.595 620.809 715.532 621 702 621L629 621L629 683C629 692.906 630.54 704.265 628.66 714C626.988 722.654 619.197 727.28 611 728C612.798 745.437 638.245 748.154 643.211 731C645.909 721.679 644 709.655 644 700L644 636L704 636C713.36 636 724.961 637.827 734 635.211C750.774 630.355 747.02 607.5 731 605z"/>
<path style="fill:#483936; stroke:none;" d="M734.667 605.333L735.333 605.667L734.667 605.333M906 605L907 606L906 605z"/>
<path style="fill:#774d3b; stroke:none;" d="M947 605L948 606L947 605z"/>
<path style="fill:#483936; stroke:none;" d="M201 606L202 607L201 606z"/>
<path style="fill:#a15d3f; stroke:none;" d="M206 606L207 607L206 606M307 606L308 607L307 606z"/>
<path style="fill:#483936; stroke:none;" d="M308 606L309 607L308 606M202 607L203 608L202 607z"/>
<path style="fill:#a15d3f; stroke:none;" d="M207 607L208 608L207 607M309 607L310 608L309 607z"/>
<path style="fill:#483936; stroke:none;" d="M310 607L311 608L310 607M738 607L739 608L738 607z"/>
<path style="fill:#a15d3f; stroke:none;" d="M907 607L908 608L907 607z"/>
<path style="fill:#483936; stroke:none;" d="M948 607L949 608L948 607M203 608L204 609L203 608z"/>
<path style="fill:#a15d3f; stroke:none;" d="M209 608L210 609L209 608z"/>
<path style="fill:#774d3b; stroke:none;" d="M311 608L312 609L311 608M908 608L909 609L908 608z"/>
<path style="fill:#483936; stroke:none;" d="M949 608L950 609L949 608M204 609L205 610L204 609z"/>
<path style="fill:#a15d3f; stroke:none;" d="M211.667 609.333L212.333 609.667L211.667 609.333M312 609L313 610L312 609z"/>
<path style="fill:#483936; stroke:none;" d="M909 609L910 610L909 609z"/>
<path style="fill:#774d3b; stroke:none;" d="M950 609L951 610L950 609z"/>
<path style="fill:#483936; stroke:none;" d="M205 610L206 611L205 610z"/>
<path style="fill:#a15d3f; stroke:none;" d="M214 610L215 611L214 610z"/>
<path style="fill:#483936; stroke:none;" d="M314 610L315 611L314 610z"/>
<path style="fill:#a15d3f; stroke:none;" d="M729.333 610.667L729.667 611.333L729.333 610.667z"/>
<path style="fill:#483936; stroke:none;" d="M206 611L207 612L206 611z"/>
<path style="fill:#a15d3f; stroke:none;" d="M216 611L217 612L216 611M315 611L316 612L315 611M910 611L911 612L910 611z"/>
<path style="fill:#483936; stroke:none;" d="M951 611L952 612L951 611M207 612L208 613L207 612z"/>
<path style="fill:#a15d3f; stroke:none;" d="M218.667 612.333L219.333 612.667L218.667 612.333z"/>
<path style="fill:#483936; stroke:none;" d="M317 612L318 613L317 612M743 612L744 613L743 612z"/>
<path style="fill:#774d3b; stroke:none;" d="M911 612L912 613L911 612z"/>
<path style="fill:#483936; stroke:none;" d="M952 612L953 613L952 612z"/>
<path style="fill:#a15d3f; stroke:none;" d="M221 613L222 614L221 613z"/>
<path style="fill:#483936; stroke:none;" d="M318 613L319 614L318 613M912 613L913 614L912 613z"/>
<path style="fill:#774d3b; stroke:none;" d="M953 613L954 614L953 613z"/>
<path style="fill:#a15d3f; stroke:none;" d="M224 614L225 615L224 614z"/>
<path style="fill:#774d3b; stroke:none;" d="M319 614L320 615L319 614z"/>
<path style="fill:#a15d3f; stroke:none;" d="M727 614L728 615L727 614z"/>
<path style="fill:#483936; stroke:none;" d="M744.333 614.667L744.667 615.333L744.333 614.667z"/>
<path style="fill:#774d3b; stroke:none;" d="M954 614L955 615L954 614z"/>
<path style="fill:#483936; stroke:none;" d="M211 615L212 616L211 615z"/>
<path style="fill:#a15d3f; stroke:none;" d="M227 615L228 616L227 615z"/>
<path style="fill:#774d3b; stroke:none;" d="M320 615L321 616L320 615z"/>
<path style="fill:#a15d3f; stroke:none;" d="M726 615L727 616L726 615M913 615L914 616L913 615z"/>
<path style="fill:#483936; stroke:none;" d="M212 616L213 617L212 616z"/>
<path style="fill:#a15d3f; stroke:none;" d="M230.667 616.333L231.333 616.667L230.667 616.333z"/>
<path style="fill:#774d3b; stroke:none;" d="M321 616L322 617L321 616z"/>
<path style="fill:#a15d3f; stroke:none;" d="M725 616L726 617L725 616M914 616L915 617L914 616z"/>
<path style="fill:#483936; stroke:none;" d="M955 616L956 617L955 616M214 617L215 618L214 617z"/>
<path style="fill:#a15d3f; stroke:none;" d="M234 617L235 618L234 617z"/>
<path style="fill:#774d3b; stroke:none;" d="M322 617L323 618L322 617z"/>
<path style="fill:#a15d3f; stroke:none;" d="M724 617L725 618L724 617z"/>
<path style="fill:#483936; stroke:none;" d="M745 617L745 624L746 624L745 617M915 617L916 618L915 617z"/>
<path style="fill:#774d3b; stroke:none;" d="M956 617L957 618L956 617z"/>
<path style="fill:#483936; stroke:none;" d="M215 618L216 619L215 618z"/>
<path style="fill:#a15d3f; stroke:none;" d="M237.667 618.333L238.333 618.667L237.667 618.333M323 618L324 619L323 618M723 618L724 619L723 618z"/>
<path style="fill:#483936; stroke:none;" d="M916 618L917 619L916 618z"/>
<path style="fill:#774d3b; stroke:none;" d="M957 618L958 619L957 618z"/>
<path style="fill:#483936; stroke:none;" d="M217 619L218 620L217 619z"/>
<path style="fill:#a15d3f; stroke:none;" d="M242.667 619.333L243.333 619.667L242.667 619.333z"/>
<path style="fill:#774d3b; stroke:none;" d="M324 619L325 620L324 619z"/>
<path style="fill:#a15d3f; stroke:none;" d="M721 619L722 620L721 619z"/>
<path style="fill:#483936; stroke:none;" d="M219 620L220 621L219 620z"/>
<path style="fill:#a15d3f; stroke:none;" d="M246.667 620.333L247.333 620.667L246.667 620.333z"/>
<path style="fill:#483936; stroke:none;" d="M325 620L326 621L325 620z"/>
<path style="fill:#a15d3f; stroke:none;" d="M717.667 620.333L718.333 620.667L717.667 620.333M917 620L918 621L917 620z"/>
<path style="fill:#483936; stroke:none;" d="M958 620L959 621L958 620z"/>
<path style="fill:#a15d3f; stroke:none;" d="M250.667 621.333L251.333 621.667L250.667 621.333z"/>
<path style="fill:#483936; stroke:none;" d="M326 621L327 622L326 621z"/>
<path style="fill:#774d3b; stroke:none;" d="M918 621L919 622L918 621M959 621L960 622L959 621z"/>
<path style="fill:#483936; stroke:none;" d="M222 622L223 623L222 622z"/>
<path style="fill:#a15d3f; stroke:none;" d="M254.667 622.333L255.333 622.667L254.667 622.333z"/>
<path style="fill:#483936; stroke:none;" d="M919 622L920 623L919 622z"/>
<path style="fill:#774d3b; stroke:none;" d="M960 622L961 623L960 622z"/>
<path style="fill:#483936; stroke:none;" d="M224 623L225 624L224 623z"/>
<path style="fill:#a15d3f; stroke:none;" d="M258.667 623.333L259.333 623.667L258.667 623.333M327 623L328 624L327 623z"/>
<path style="fill:#483936; stroke:none;" d="M226 624L227 625L226 624z"/>
<path style="fill:#a15d3f; stroke:none;" d="M262 624L263 625L262 624z"/>
<path style="fill:#774d3b; stroke:none;" d="M328 624L329 625L328 624z"/>
<path style="fill:#a15d3f; stroke:none;" d="M920 624L921 625L920 624z"/>
<path style="fill:#483936; stroke:none;" d="M961 624L962 625L961 624M228.667 625.333L229.333 625.667L228.667 625.333z"/>
<path style="fill:#a15d3f; stroke:none;" d="M265 625L266 626L265 625z"/>
<path style="fill:#774d3b; stroke:none;" d="M329 625L330 626L329 625M921 625L922 626L921 625z"/>
<path style="fill:#483936; stroke:none;" d="M962 625L963 626L962 625M231 626L232 627L231 626z"/>
<path style="fill:#a15d3f; stroke:none;" d="M268 626L269 627L268 626z"/>
<path style="fill:#483936; stroke:none;" d="M330 626L331 627L330 626M744 626L745 627L744 626M922 626L923 627L922 626z"/>
<path style="fill:#774d3b; stroke:none;" d="M963 626L964 627L963 626z"/>
<path style="fill:#483936; stroke:none;" d="M233 627L234 628L233 627z"/>
<path style="fill:#a15d3f; stroke:none;" d="M271 627L272 628L271 627M330 627L331 628L330 627z"/>
<path style="fill:#774d3b; stroke:none;" d="M331 627C335.31 641.968 341.005 654.832 338.7 671C330.519 728.391 258.755 740.403 213 725.252C202.471 721.765 193.349 715.764 184 710C189.264 721.281 205.12 729.986 216 735.216C250.98 752.031 304.544 752.316 333.996 723.96C360.019 698.906 362.539 649.216 331 627z"/>
<path style="fill:#483936; stroke:none;" d="M236 628L237 629L236 628z"/>
<path style="fill:#a15d3f; stroke:none;" d="M274 628L275 629L274 628z"/>
<path style="fill:#483936; stroke:none;" d="M333 628L334 629L333 628M743 628L744 629L743 628z"/>
<path style="fill:#a15d3f; stroke:none;" d="M923 628L924 629L923 628z"/>
<path style="fill:#483936; stroke:none;" d="M964 628L965 629L964 628M238.667 629.333L239.333 629.667L238.667 629.333z"/>
<path style="fill:#a15d3f; stroke:none;" d="M276 629L277 630L276 629M331 629L332 630L331 629z"/>
<path style="fill:#483936; stroke:none;" d="M334 629L335 630L334 629M742 629L743 630L742 629z"/>
<path style="fill:#a15d3f; stroke:none;" d="M924 629L925 630L924 629z"/>
<path style="fill:#483936; stroke:none;" d="M965 629L966 630L965 629M241.667 630.333L242.333 630.667L241.667 630.333z"/>
<path style="fill:#a15d3f; stroke:none;" d="M279 630L280 631L279 630z"/>
<path style="fill:#483936; stroke:none;" d="M335 630L336 631L335 630M925 630L926 631L925 630z"/>
<path style="fill:#774d3b; stroke:none;" d="M966 630L967 631L966 630z"/>
<path style="fill:#483936; stroke:none;" d="M245 631L246 632L245 631z"/>
<path style="fill:#a15d3f; stroke:none;" d="M281 631L282 632L281 631M332 631L333 632L332 631z"/>
<path style="fill:#483936; stroke:none;" d="M336 631L337 632L336 631M926 631L927 632L926 631M248.667 632.333L249.333 632.667L248.667 632.333z"/>
<path style="fill:#a15d3f; stroke:none;" d="M283 632L284 633L283 632z"/>
<path style="fill:#483936; stroke:none;" d="M337 632L338 633L337 632M252 633L253 634L252 633z"/>
<path style="fill:#a15d3f; stroke:none;" d="M285 633L286 634L285 633M333 633L334 634L333 633z"/>
<path style="fill:#483936; stroke:none;" d="M338 633L339 634L338 633M738 633L739 634L738 633z"/>
<path style="fill:#a15d3f; stroke:none;" d="M927 633L928 634L927 633z"/>
<path style="fill:#483936; stroke:none;" d="M968 633L969 634L968 633M255 634L255 635L258 635L255 634z"/>
<path style="fill:#a15d3f; stroke:none;" d="M287 634L288 635L287 634z"/>
<path style="fill:#483936; stroke:none;" d="M339 634L340 635L339 634M736 634L737 635L736 634z"/>
<path style="fill:#774d3b; stroke:none;" d="M928 634L929 635L928 634M969 634L970 635L969 634z"/>
<path style="fill:#483936; stroke:none;" d="M260.667 635.333L261.333 635.667L260.667 635.333z"/>
<path style="fill:#a15d3f; stroke:none;" d="M288 635L289 636L288 635M334 635L335 636L334 635z"/>
<path style="fill:#483936; stroke:none;" d="M340 635L341 636L340 635M733.667 635.333L734.333 635.667L733.667 635.333M929 635L930 636L929 635z"/>
<path style="fill:#774d3b; stroke:none;" d="M970 635L971 636L970 635z"/>
<path style="fill:#483936; stroke:none;" d="M264.667 636.333L265.333 636.667L264.667 636.333z"/>
<path style="fill:#a15d3f; stroke:none;" d="M290 636L291 637L290 636z"/>
<path style="fill:#483936; stroke:none;" d="M341 636L342 637L341 636M269 637L270 638L269 637z"/>
<path style="fill:#a15d3f; stroke:none;" d="M930 637L931 638L930 637z"/>
<path style="fill:#483936; stroke:none;" d="M971 637L972 638L971 637M272.667 638.333L273.333 638.667L272.667 638.333z"/>
<path style="fill:#a15d3f; stroke:none;" d="M293 638L294 639L293 638M335 638L336 639L335 638z"/>
<path style="fill:#774d3b; stroke:none;" d="M931 638L932 639L931 638M972 638L973 639L972 638z"/>
<path style="fill:#483936; stroke:none;" d="M276.667 639.333L277.333 639.667L276.667 639.333z"/>
<path style="fill:#a15d3f; stroke:none;" d="M294 639L295 640L294 639z"/>
<path style="fill:#483936; stroke:none;" d="M343 639L344 640L343 639M932 639L933 640L932 639z"/>
<path style="fill:#774d3b; stroke:none;" d="M973 639L974 640L973 639z"/>
<path style="fill:#483936; stroke:none;" d="M279.667 640.333L280.333 640.667L279.667 640.333z"/>
<path style="fill:#a15d3f; stroke:none;" d="M295 640L296 641L295 640z"/>
<path style="fill:#483936; stroke:none;" d="M344 640L345 641L344 640M282.667 641.333L283.333 641.667L282.667 641.333z"/>
<path style="fill:#a15d3f; stroke:none;" d="M296 641L297 642L296 641M336.333 641.667L336.667 642.333L336.333 641.667M933 641L934 642L933 641z"/>
<path style="fill:#483936; stroke:none;" d="M974 641L975 642L974 641M286 642L287 643L286 642z"/>
<path style="fill:#a15d3f; stroke:none;" d="M297 642L298 643L297 642z"/>
<path style="fill:#483936; stroke:none;" d="M345 642L346 643L345 642z"/>
<path style="fill:#a15d3f; stroke:none;" d="M934 642L935 643L934 642z"/>
<path style="fill:#483936; stroke:none;" d="M975 642L976 643L975 642M289 643L290 644L289 643z"/>
<path style="fill:#a15d3f; stroke:none;" d="M298 643L299 644L298 643z"/>
<path style="fill:#483936; stroke:none;" d="M935 643L936 644L935 643z"/>
<path style="fill:#774d3b; stroke:none;" d="M976 643L977 644L976 643z"/>
<path style="fill:#483936; stroke:none;" d="M291 644L292 645L291 644z"/>
<path style="fill:#a15d3f; stroke:none;" d="M299 644L300 645L299 644z"/>
<path style="fill:#483936; stroke:none;" d="M346 644L347 645L346 644M936 644L937 645L936 644M293.667 645.333L294.333 645.667L293.667 645.333z"/>
<path style="fill:#a15d3f; stroke:none;" d="M936 645L937 646L936 645z"/>
<path style="fill:#483936; stroke:none;" d="M977 645L978 646L977 645M296 646L297 647L296 646z"/>
<path style="fill:#a15d3f; stroke:none;" d="M300 646L301 647L300 646M337.333 646.667L337.667 647.333L337.333 646.667z"/>
<path style="fill:#483936; stroke:none;" d="M347 646L348 647L347 646z"/>
<path style="fill:#a15d3f; stroke:none;" d="M937 646L938 647L937 646z"/>
<path style="fill:#483936; stroke:none;" d="M978 646L979 647L978 646M298 647L299 648L298 647z"/>
<path style="fill:#a15d3f; stroke:none;" d="M301 647L302 648L301 647z"/>
<path style="fill:#774d3b; stroke:none;" d="M938 647L939 648L938 647M979 647L980 648L979 647z"/>
<path style="fill:#483936; stroke:none;" d="M300 648L301 649L300 648M348 648L349 649L348 648M939 648L940 649L939 648z"/>
<path style="fill:#a15d3f; stroke:none;" d="M302 649L303 650L302 649z"/>
<path style="fill:#483936; stroke:none;" d="M302 650L303 651L302 650M349 650L350 651L349 650z"/>
<path style="fill:#a15d3f; stroke:none;" d="M940 650L941 651L940 650z"/>
<path style="fill:#483936; stroke:none;" d="M981 650L982 651L981 650z"/>
<path style="fill:#a15d3f; stroke:none;" d="M303 651L304 652L303 651M338 651L338 658L339 658L338 651z"/>
<path style="fill:#774d3b; stroke:none;" d="M941 651L942 652L941 651M982 651L983 652L982 651z"/>
<path style="fill:#483936; stroke:none;" d="M303 652L304 653L303 652M942 652L943 653L942 652z"/>
<path style="fill:#774d3b; stroke:none;" d="M983 652L984 653L983 652z"/>
<path style="fill:#483936; stroke:none;" d="M350 653L351 654L350 653z"/>
<path style="fill:#a15d3f; stroke:none;" d="M304 654L305 655L304 654M943 654L944 655L943 654z"/>
<path style="fill:#483936; stroke:none;" d="M984 654L985 655L984 654z"/>
<path style="fill:#774d3b; stroke:none;" d="M304 655L305 656L304 655M944 655L945 656L944 655M985 655L986 656L985 655z"/>
<path style="fill:#483936; stroke:none;" d="M351 656L352 657L351 656M945 656L946 657L945 656z"/>
<path style="fill:#774d3b; stroke:none;" d="M986 656L987 657L986 656z"/>
<path style="fill:#a15d3f; stroke:none;" d="M305.333 658.667L305.667 659.333L305.333 658.667M946 658L947 659L946 658z"/>
<path style="fill:#483936; stroke:none;" d="M987 658L988 659L987 658M352 659L352 662L353 662L352 659z"/>
<path style="fill:#a15d3f; stroke:none;" d="M947 659L948 660L947 659z"/>
<path style="fill:#483936; stroke:none;" d="M988 659L989 660L988 659z"/>
<path style="fill:#774d3b; stroke:none;" d="M305.333 660.667L305.667 661.333L305.333 660.667M948 660L949 661L948 660M989 660L990 661L989 660z"/>
<path style="fill:#483936; stroke:none;" d="M949 661L950 662L949 661M305 662L305 666L306 666L305 662M990 662L991 663L990 662z"/>
<path style="fill:#a15d3f; stroke:none;" d="M950 663L951 664L950 663z"/>
<path style="fill:#483936; stroke:none;" d="M991 663L992 664L991 663z"/>
<path style="fill:#774d3b; stroke:none;" d="M951 664L952 665L951 664M992 664L993 665L992 664z"/>
<path style="fill:#483936; stroke:none;" d="M353 665L353 670L354 670L353 665M952 665L953 666L952 665z"/>
<path style="fill:#774d3b; stroke:none;" d="M305.333 666.667L305.667 667.333L305.333 666.667z"/>
<path style="fill:#483936; stroke:none;" d="M993 666L994 667L993 666z"/>
<path style="fill:#a15d3f; stroke:none;" d="M338 667L338 673L339 673L338 667M953 667L954 668L953 667z"/>
<path style="fill:#483936; stroke:none;" d="M994 667L995 668L994 667z"/>
<path style="fill:#a15d3f; stroke:none;" d="M305.333 668.667L305.667 669.333L305.333 668.667z"/>
<path style="fill:#774d3b; stroke:none;" d="M954 668L955 669L954 668M995 668L996 669L995 668z"/>
<path style="fill:#483936; stroke:none;" d="M955 669L956 670L955 669M177 671L178 672L177 671z"/>
<path style="fill:#a15d3f; stroke:none;" d="M178.667 671.333L179.333 671.667L178.667 671.333M185 671L186 672L185 671z"/>
<path style="fill:#774d3b; stroke:none;" d="M186 671L187 672L186 671z"/>
<path style="fill:#a15d3f; stroke:none;" d="M956 671L957 672L956 671z"/>
<path style="fill:#774d3b; stroke:none;" d="M175 672L176 673L175 672z"/>
<path style="fill:#a15d3f; stroke:none;" d="M188 672L189 673L188 672z"/>
<path style="fill:#483936; stroke:none;" d="M189 672L190 673L189 672z"/>
<path style="fill:#774d3b; stroke:none;" d="M304 672L305 673L304 672z"/>
<path style="fill:#a15d3f; stroke:none;" d="M957 672L958 673L957 672z"/>
<path style="fill:#483936; stroke:none;" d="M173 673L174 674L173 673z"/>
<path style="fill:#a15d3f; stroke:none;" d="M190 673L191 674L190 673M304 673L305 674L304 673z"/>
<path style="fill:#774d3b; stroke:none;" d="M958 673L959 674L958 673M172 674L173 675L172 674z"/>
<path style="fill:#483936; stroke:none;" d="M192 674L193 675L192 674M303 674L304 675L303 674M959 674L960 675L959 674z"/>
<path style="fill:#774d3b; stroke:none;" d="M171 675L172 676L171 675z"/>
<path style="fill:#483936; stroke:none;" d="M193 675L194 676L193 675z"/>
<path style="fill:#a15d3f; stroke:none;" d="M303 675L304 676L303 675M337.333 675.667L337.667 676.333L337.333 675.667z"/>
<path style="fill:#774d3b; stroke:none;" d="M170 676L171 677L170 676M194 676L195 677L194 676z"/>
<path style="fill:#483936; stroke:none;" d="M302 676L303 677L302 676z"/>
<path style="fill:#a15d3f; stroke:none;" d="M960 676L961 677L960 676z"/>
<path style="fill:#483936; stroke:none;" d="M169 677L170 678L169 677z"/>
<path style="fill:#a15d3f; stroke:none;" d="M195 677L196 678L195 677M302 677L303 678L302 677z"/>
<path style="fill:#774d3b; stroke:none;" d="M961 677L962 678L961 677z"/>
<path style="fill:#483936; stroke:none;" d="M168 678L169 679L168 678z"/>
<path style="fill:#a15d3f; stroke:none;" d="M196 678L197 679L196 678z"/>
<path style="fill:#483936; stroke:none;" d="M301 678L302 679L301 678M962 678L963 679L962 678z"/>
<path style="fill:#a15d3f; stroke:none;" d="M168 679L169 680L168 679M197 679L198 680L197 679z"/>
<path style="fill:#483936; stroke:none;" d="M167 680L168 681L167 680M199 680L200 681L199 680z"/>
<path style="fill:#a15d3f; stroke:none;" d="M300 680L301 681L300 680M336.333 680.667L336.667 681.333L336.333 680.667M963 680L964 681L963 680M167 681L168 682L167 681z"/>
<path style="fill:#774d3b; stroke:none;" d="M200 681L201 682L200 681z"/>
<path style="fill:#483936; stroke:none;" d="M299 681L300 682L299 681z"/>
<path style="fill:#774d3b; stroke:none;" d="M964 681L965 682L964 681z"/>
<path style="fill:#a15d3f; stroke:none;" d="M201 682L202 683L201 682z"/>
<path style="fill:#483936; stroke:none;" d="M298 682L299 683L298 682M965 682L966 683L965 682z"/>
<path style="fill:#774d3b; stroke:none;" d="M166 683L167 684L166 683z"/>
<path style="fill:#483936; stroke:none;" d="M203 683L204 684L203 683M297 683L298 684L297 683z"/>
<path style="fill:#a15d3f; stroke:none;" d="M335 683L336 684L335 683M166 684L166 690L167 690L166 684z"/>
<path style="fill:#774d3b; stroke:none;" d="M204 684L205 685L204 684z"/>
<path style="fill:#483936; stroke:none;" d="M296 684L297 685L296 684z"/>
<path style="fill:#a15d3f; stroke:none;" d="M966 684L967 685L966 684M205 685L206 686L205 685z"/>
<path style="fill:#483936; stroke:none;" d="M206 685L207 686L206 685M295 685L296 686L295 685M353 685L353 689L354 689L353 685z"/>
<path style="fill:#a15d3f; stroke:none;" d="M967 685L968 686L967 685z"/>
<path style="fill:#774d3b; stroke:none;" d="M207 686L208 687L207 686z"/>
<path style="fill:#483936; stroke:none;" d="M294 686L295 687L294 686z"/>
<path style="fill:#a15d3f; stroke:none;" d="M334 686L335 687L334 686z"/>
<path style="fill:#483936; stroke:none;" d="M968 686L969 687L968 686M209 687L210 688L209 687z"/>
<path style="fill:#774d3b; stroke:none;" d="M293 687L294 688L293 687z"/>
<path style="fill:#483936; stroke:none;" d="M969 687L970 688L969 687z"/>
<path style="fill:#a15d3f; stroke:none;" d="M210 688L211 689L210 688z"/>
<path style="fill:#483936; stroke:none;" d="M211 688L212 689L211 688M291 688L292 689L291 688z"/>
<path style="fill:#a15d3f; stroke:none;" d="M292 688L293 689L292 688M333 688L334 689L333 688z"/>
<path style="fill:#774d3b; stroke:none;" d="M212 689L213 690L212 689M290 689L291 690L290 689z"/>
<path style="fill:#a15d3f; stroke:none;" d="M970 689L971 690L970 689z"/>
<path style="fill:#774d3b; stroke:none;" d="M166 690L167 691L166 690M214 690L215 691L214 690z"/>
<path style="fill:#483936; stroke:none;" d="M288 690L289 691L288 690z"/>
<path style="fill:#a15d3f; stroke:none;" d="M332 690L333 691L332 690z"/>
<path style="fill:#774d3b; stroke:none;" d="M971 690L972 691L971 690z"/>
<path style="fill:#483936; stroke:none;" d="M166 691L167 692L166 691z"/>
<path style="fill:#774d3b; stroke:none;" d="M216 691L217 692L216 691z"/>
<path style="fill:#483936; stroke:none;" d="M286 691L287 692L286 691z"/>
<path style="fill:#a15d3f; stroke:none;" d="M287 691L288 692L287 691z"/>
<path style="fill:#483936; stroke:none;" d="M352.333 691.667L352.667 692.333L352.333 691.667M972 691L973 692L972 691z"/>
<path style="fill:#a15d3f; stroke:none;" d="M218 692L219 693L218 692z"/>
<path style="fill:#483936; stroke:none;" d="M219 692L220 693L219 692z"/>
<path style="fill:#a15d3f; stroke:none;" d="M285 692L286 693L285 692M331 692L332 693L331 692z"/>
<path style="fill:#774d3b; stroke:none;" d="M167 693L168 694L167 693z"/>
<path style="fill:#a15d3f; stroke:none;" d="M220 693L221 694L220 693z"/>
<path style="fill:#483936; stroke:none;" d="M221 693L222 694L221 693z"/>
<path style="fill:#a15d3f; stroke:none;" d="M283 693L284 694L283 693M973 693L974 694L973 693z"/>
<path style="fill:#483936; stroke:none;" d="M167 694L168 695L167 694z"/>
<path style="fill:#a15d3f; stroke:none;" d="M223 694L224 695L223 694z"/>
<path style="fill:#483936; stroke:none;" d="M224 694L225 695L224 694M280 694L281 695L280 694z"/>
<path style="fill:#a15d3f; stroke:none;" d="M281 694L282 695L281 694M330 694L331 695L330 694z"/>
<path style="fill:#774d3b; stroke:none;" d="M974 694L975 695L974 694z"/>
<path style="fill:#a15d3f; stroke:none;" d="M168 695L169 696L168 695M226 695L227 696L226 695z"/>
<path style="fill:#483936; stroke:none;" d="M227 695L228 696L227 695M277 695L278 696L277 695z"/>
<path style="fill:#a15d3f; stroke:none;" d="M278 695L279 696L278 695M329 695L330 696L329 695z"/>
<path style="fill:#483936; stroke:none;" d="M975 695L976 696L975 695z"/>
<path style="fill:#a15d3f; stroke:none;" d="M229 696L230 697L229 696z"/>
<path style="fill:#774d3b; stroke:none;" d="M230 696L231 697L230 696z"/>
<path style="fill:#483936; stroke:none;" d="M231 696L232 697L231 696M274 696L275 697L274 696z"/>
<path style="fill:#a15d3f; stroke:none;" d="M275 696L276 697L275 696z"/>
<path style="fill:#483936; stroke:none;" d="M351 696L352 697L351 696M169 697L170 698L169 697z"/>
<path style="fill:#a15d3f; stroke:none;" d="M233 697L234 698L233 697z"/>
<path style="fill:#774d3b; stroke:none;" d="M234 697L235 698L234 697z"/>
<path style="fill:#483936; stroke:none;" d="M235 697L236 698L235 697M269 697L270 698L269 697z"/>
<path style="fill:#774d3b; stroke:none;" d="M270 697L271 698L270 697z"/>
<path style="fill:#a15d3f; stroke:none;" d="M271.667 697.333L272.333 697.667L271.667 697.333M328 697L329 698L328 697M976 697L977 698L976 697z"/>
<path style="fill:#774d3b; stroke:none;" d="M170 698L171 699L170 698z"/>
<path style="fill:#a15d3f; stroke:none;" d="M238 698L238 699L241 699L238 698z"/>
<path style="fill:#774d3b; stroke:none;" d="M241 698L242 699L241 698z"/>
<path style="fill:#483936; stroke:none;" d="M242.667 698.333L243.333 698.667L242.667 698.333M262 698L262 699L265 699L262 698z"/>
<path style="fill:#774d3b; stroke:none;" d="M265 698L266 699L265 698z"/>
<path style="fill:#a15d3f; stroke:none;" d="M266 698L267 699L266 698M977 698L978 699L977 698z"/>
<path style="fill:#774d3b; stroke:none;" d="M171 699L172 700L171 699z"/>
<path style="fill:#a15d3f; stroke:none;" d="M249 699L249 700L258 700L249 699z"/>
<path style="fill:#483936; stroke:none;" d="M350 699L351 700L350 699M978 699L979 700L978 699z"/>
<path style="fill:#774d3b; stroke:none;" d="M172 700L173 701L172 700z"/>
<path style="fill:#483936; stroke:none;" d="M979 700L980 701L979 700z"/>
<path style="fill:#774d3b; stroke:none;" d="M173 701L174 702L173 701z"/>
<path style="fill:#a15d3f; stroke:none;" d="M325 701L326 702L325 701z"/>
<path style="fill:#483936; stroke:none;" d="M349 701L350 702L349 701z"/>
<path style="fill:#a15d3f; stroke:none;" d="M979 701L980 702L979 701z"/>
<path style="fill:#483936; stroke:none;" d="M174 702L175 703L174 702z"/>
<path style="fill:#a15d3f; stroke:none;" d="M324 702L325 703L324 702M980 702L981 703L980 702M176 703L177 704L176 703M323 703L324 704L323 703z"/>
<path style="fill:#774d3b; stroke:none;" d="M981 703L982 704L981 703z"/>
<path style="fill:#a15d3f; stroke:none;" d="M177 704L178 705L177 704z"/>
<path style="fill:#483936; stroke:none;" d="M348 704L349 705L348 704M982 704L983 705L982 704z"/>
<path style="fill:#774d3b; stroke:none;" d="M178 705L179 706L178 705z"/>
<path style="fill:#483936; stroke:none;" d="M179 706L180 707L179 706M347 706L348 707L347 706z"/>
<path style="fill:#a15d3f; stroke:none;" d="M983 706L984 707L983 706z"/>
<path style="fill:#483936; stroke:none;" d="M180 707L181 708L180 707z"/>
<path style="fill:#774d3b; stroke:none;" d="M984 707L985 708L984 707z"/>
<path style="fill:#a15d3f; stroke:none;" d="M182 708L183 709L182 708z"/>
<path style="fill:#483936; stroke:none;" d="M985 708L986 709L985 708z"/>
<path style="fill:#a15d3f; stroke:none;" d="M183 709L184 710L183 709M317 709L318 710L317 709z"/>
<path style="fill:#483936; stroke:none;" d="M345 709L346 710L345 709M183 710L184 711L183 710z"/>
<path style="fill:#a15d3f; stroke:none;" d="M316 710L317 711L316 710M986 710L987 711L986 710M186 711L187 712L186 711M315 711L316 712L315 711z"/>
<path style="fill:#483936; stroke:none;" d="M344 711L345 712L344 711z"/>
<path style="fill:#774d3b; stroke:none;" d="M987 711L988 712L987 711z"/>
<path style="fill:#a15d3f; stroke:none;" d="M187 712L188 713L187 712M314 712L315 713L314 712z"/>
<path style="fill:#774d3b; stroke:none;" d="M442 712L442 715L443 715L442 712z"/>
<path style="fill:#a15d3f; stroke:none;" d="M595 712L595 715L596 715L595 712z"/>
<path style="fill:#483936; stroke:none;" d="M988 712L989 713L988 712M1025 712L1025 715L1026 715L1025 712M185 713L186 714L185 713z"/>
<path style="fill:#a15d3f; stroke:none;" d="M189 713L190 714L189 713M312 713L313 714L312 713z"/>
<path style="fill:#483936; stroke:none;" d="M989 713L990 714L989 713M186 714L187 715L186 714z"/>
<path style="fill:#a15d3f; stroke:none;" d="M190 714L191 715L190 714M311 714L312 715L311 714z"/>
<path style="fill:#483936; stroke:none;" d="M342 714L343 715L342 714z"/>
<path style="fill:#a15d3f; stroke:none;" d="M628.333 714.667L628.667 715.333L628.333 714.667M989 714L990 715L989 714z"/>
<path style="fill:#483936; stroke:none;" d="M187 715L188 716L187 715z"/>
<path style="fill:#a15d3f; stroke:none;" d="M192 715L193 716L192 715z"/>
<path style="fill:#483936; stroke:none;" d="M341 715L342 716L341 715M442 715L443 716L442 715z"/>
<path style="fill:#774d3b; stroke:none;" d="M595 715L596 716L595 715z"/>
<path style="fill:#a15d3f; stroke:none;" d="M990 715L991 716L990 715z"/>
<path style="fill:#774d3b; stroke:none;" d="M1025 715L1026 716L1025 715z"/>
<path style="fill:#483936; stroke:none;" d="M188 716L189 717L188 716z"/>
<path style="fill:#a15d3f; stroke:none;" d="M194 716L195 717L194 716M308 716L309 717L308 716z"/>
<path style="fill:#483936; stroke:none;" d="M340 716L341 717L340 716z"/>
<path style="fill:#a15d3f; stroke:none;" d="M443 716L444 717L443 716M476.333 716.667L476.667 717.333L476.333 716.667z"/>
<path style="fill:#483936; stroke:none;" d="M831 716L832 717L831 716z"/>
<path style="fill:#774d3b; stroke:none;" d="M860 716L861 717L860 716M991 716L992 717L991 716M443 717L444 718L443 717z"/>
<path style="fill:#a15d3f; stroke:none;" d="M596 717L597 718L596 717z"/>
<path style="fill:#774d3b; stroke:none;" d="M831 717L832 718L831 717z"/>
<path style="fill:#483936; stroke:none;" d="M992 717L993 718L992 717M1024 717L1025 718L1024 717z"/>
<path style="fill:#a15d3f; stroke:none;" d="M197 718L198 719L197 718M305 718L306 719L305 718z"/>
<path style="fill:#483936; stroke:none;" d="M596 718L597 719L596 718z"/>
<path style="fill:#a15d3f; stroke:none;" d="M627 718L628 719L627 718M831 718L832 719L831 718z"/>
<path style="fill:#483936; stroke:none;" d="M859 718L860 719L859 718z"/>
<path style="fill:#774d3b; stroke:none;" d="M1024 718L1025 719L1024 718z"/>
<path style="fill:#483936; stroke:none;" d="M192 719L193 720L192 719z"/>
<path style="fill:#a15d3f; stroke:none;" d="M199 719L200 720L199 719M303 719L304 720L303 719z"/>
<path style="fill:#774d3b; stroke:none;" d="M444 719L445 720L444 719z"/>
<path style="fill:#a15d3f; stroke:none;" d="M475 719L476 720L475 719M597 719L598 720L597 719M626 719L627 720L626 719z"/>
<path style="fill:#483936; stroke:none;" d="M832 719L833 720L832 719z"/>
<path style="fill:#774d3b; stroke:none;" d="M859 719L860 720L859 719z"/>
<path style="fill:#a15d3f; stroke:none;" d="M993 719L994 720L993 719z"/>
<path style="fill:#483936; stroke:none;" d="M193 720L194 721L193 720z"/>
<path style="fill:#a15d3f; stroke:none;" d="M201 720L202 721L201 720M301 720L302 721L301 720z"/>
<path style="fill:#483936; stroke:none;" d="M337 720L338 721L337 720z"/>
<path style="fill:#a15d3f; stroke:none;" d="M445 720L446 721L445 720M474 720L475 721L474 720z"/>
<path style="fill:#483936; stroke:none;" d="M597 720L598 721L597 720z"/>
<path style="fill:#a15d3f; stroke:none;" d="M832 720L833 721L832 720z"/>
<path style="fill:#483936; stroke:none;" d="M858 720L859 721L858 720z"/>
<path style="fill:#774d3b; stroke:none;" d="M994 720L995 721L994 720M1023 720L1024 721L1023 720z"/>
<path style="fill:#483936; stroke:none;" d="M194 721L195 722L194 721z"/>
<path style="fill:#a15d3f; stroke:none;" d="M203 721L204 722L203 721M299 721L300 722L299 721z"/>
<path style="fill:#483936; stroke:none;" d="M336 721L337 722L336 721M598 721L599 722L598 721z"/>
<path style="fill:#a15d3f; stroke:none;" d="M625 721L626 722L625 721z"/>
<path style="fill:#774d3b; stroke:none;" d="M833 721L834 722L833 721z"/>
<path style="fill:#483936; stroke:none;" d="M995 721L996 722L995 721M1022 721L1023 722L1022 721z"/>
<path style="fill:#a15d3f; stroke:none;" d="M206 722L207 723L206 722M297 722L298 723L297 722z"/>
<path style="fill:#483936; stroke:none;" d="M335 722L336 723L335 722M446 722L447 723L446 722z"/>
<path style="fill:#774d3b; stroke:none;" d="M599 722L600 723L599 722z"/>
<path style="fill:#a15d3f; stroke:none;" d="M624 722L625 723L624 722z"/>
<path style="fill:#483936; stroke:none;" d="M834 722L835 723L834 722z"/>
<path style="fill:#774d3b; stroke:none;" d="M857 722L858 723L857 722z"/>
<path style="fill:#483936; stroke:none;" d="M1021 722L1022 723L1021 722z"/>
<path style="fill:#a15d3f; stroke:none;" d="M208 723L209 724L208 723M295 723L296 724L295 723z"/>
<path style="fill:#483936; stroke:none;" d="M447 723L448 724L447 723z"/>
<path style="fill:#774d3b; stroke:none;" d="M600 723L601 724L600 723z"/>
<path style="fill:#a15d3f; stroke:none;" d="M623 723L624 724L623 723z"/>
<path style="fill:#483936; stroke:none;" d="M835 723L836 724L835 723z"/>
<path style="fill:#774d3b; stroke:none;" d="M856 723L857 724L856 723z"/>
<path style="fill:#483936; stroke:none;" d="M997 723L998 724L997 723M1020 723L1021 724L1020 723M198 724L199 725L198 724z"/>
<path style="fill:#a15d3f; stroke:none;" d="M210.667 724.333L211.333 724.667L210.667 724.333M292 724L293 725L292 724M449 724L450 725L449 724M470 724L471 725L470 724z"/>
<path style="fill:#483936; stroke:none;" d="M601 724L602 725L601 724z"/>
<path style="fill:#a15d3f; stroke:none;" d="M622 724L623 725L622 724z"/>
<path style="fill:#483936; stroke:none;" d="M836 724L837 725L836 724z"/>
<path style="fill:#774d3b; stroke:none;" d="M855 724L856 725L855 724z"/>
<path style="fill:#483936; stroke:none;" d="M998 724L999 725L998 724M1019 724L1020 725L1019 724z"/>
<path style="fill:#a15d3f; stroke:none;" d="M213.667 725.333L214.333 725.667L213.667 725.333M289.667 725.333L290.333 725.667L289.667 725.333z"/>
<path style="fill:#483936; stroke:none;" d="M450 725L451 726L450 725z"/>
<path style="fill:#a15d3f; stroke:none;" d="M451 725L452 726L451 725M469 725L470 726L469 725M603 725L604 726L603 725M620 725L621 726L620 725z"/>
<path style="fill:#774d3b; stroke:none;" d="M837 725L838 726L837 725z"/>
<path style="fill:#483936; stroke:none;" d="M853 725L854 726L853 725z"/>
<path style="fill:#774d3b; stroke:none;" d="M854 725L855 726L854 725z"/>
<path style="fill:#a15d3f; stroke:none;" d="M999 725L1000 726L999 725z"/>
<path style="fill:#483936; stroke:none;" d="M1000 725L1001 726L1000 725M1017 725L1018 726L1017 725z"/>
<path style="fill:#774d3b; stroke:none;" d="M1018 725L1019 726L1018 725z"/>
<path style="fill:#483936; stroke:none;" d="M201 726L202 727L201 726z"/>
<path style="fill:#a15d3f; stroke:none;" d="M217 726L218 727L217 726M287 726L288 727L287 726z"/>
<path style="fill:#483936; stroke:none;" d="M452 726L453 727L452 726z"/>
<path style="fill:#a15d3f; stroke:none;" d="M453 726L454 727L453 726M466.667 726.333L467.333 726.667L466.667 726.333M605 726L606 727L605 726M618 726L619 727L618 726z"/>
<path style="fill:#774d3b; stroke:none;" d="M839 726L840 727L839 726z"/>
<path style="fill:#483936; stroke:none;" d="M851 726L852 727L851 726z"/>
<path style="fill:#774d3b; stroke:none;" d="M852 726L853 727L852 726z"/>
<path style="fill:#a15d3f; stroke:none;" d="M1001 726L1002 727L1001 726z"/>
<path style="fill:#774d3b; stroke:none;" d="M1002 726L1003 727L1002 726z"/>
<path style="fill:#483936; stroke:none;" d="M1015 726L1016 727L1015 726z"/>
<path style="fill:#774d3b; stroke:none;" d="M1016 726L1017 727L1016 726z"/>
<path style="fill:#483936; stroke:none;" d="M202 727L203 728L202 727z"/>
<path style="fill:#a15d3f; stroke:none;" d="M220.667 727.333L221.333 727.667L220.667 727.333M283.667 727.333L284.333 727.667L283.667 727.333z"/>
<path style="fill:#483936; stroke:none;" d="M455 727L456 728L455 727z"/>
<path style="fill:#774d3b; stroke:none;" d="M456 727L457 728L456 727z"/>
<path style="fill:#a15d3f; stroke:none;" d="M457.667 727.333L458.333 727.667L457.667 727.333M461 727L461 728L465 728L461 727z"/>
<path style="fill:#483936; stroke:none;" d="M492 727L492 731L493 731L492 727M607 727L608 728L607 727z"/>
<path style="fill:#774d3b; stroke:none;" d="M608 727L609 728L608 727z"/>
<path style="fill:#a15d3f; stroke:none;" d="M609.667 727.333L610.333 727.667L609.667 727.333M613 727L613 728L616 728L613 727M841.667 727.333L842.333 727.667L841.667 727.333z"/>
<path style="fill:#774d3b; stroke:none;" d="M843.667 727.333L844.333 727.667L843.667 727.333z"/>
<path style="fill:#483936; stroke:none;" d="M845 727L845 728L848 728L845 727z"/>
<path style="fill:#774d3b; stroke:none;" d="M848.667 727.333L849.333 727.667L848.667 727.333M1004.67 727.333L1005.33 727.667L1004.67 727.333z"/>
<path style="fill:#483936; stroke:none;" d="M1006 727L1006 728L1013 728L1006 727z"/>
<path style="fill:#774d3b; stroke:none;" d="M1013 727L1014 728L1013 727z"/>
<path style="fill:#483936; stroke:none;" d="M204 728L205 729L204 728z"/>
<path style="fill:#a15d3f; stroke:none;" d="M225.667 728.333L226.333 728.667L225.667 728.333M279.667 728.333L280.333 728.667L279.667 728.333z"/>
<path style="fill:#483936; stroke:none;" d="M328 728L329 729L328 728M610.333 728.667L610.667 729.333L610.333 728.667M205 729L206 730L205 729z"/>
<path style="fill:#a15d3f; stroke:none;" d="M229 729L229 730L232 730L229 729M273 729L273 730L277 730L273 729z"/>
<path style="fill:#483936; stroke:none;" d="M207 730L208 731L207 730z"/>
<path style="fill:#a15d3f; stroke:none;" d="M235 730L235 731L239 731L235 730M267 730L267 731L270 731L267 730z"/>
<path style="fill:#483936; stroke:none;" d="M325 730L326 731L325 730M643.333 730.667L643.667 731.333L643.333 730.667M209 731L210 732L209 731z"/>
<path style="fill:#a15d3f; stroke:none;" d="M251 731L251 732L257 732L251 731z"/>
<path style="fill:#483936; stroke:none;" d="M458.333 731.667L458.667 732.333L458.333 731.667M322 732L323 733L322 732M491 732L492 733L491 732M611 732L612 733L611 732M212 733L213 734L212 733M320 733L321 734L320 733M642 733L643 734L642 733M214 734L215 735L214 734M490 734L491 735L490 734M612 734L613 735L612 734M216 735L217 736L216 735M317 735L318 736L317 735M460 735L461 736L460 735M641 735L642 736L641 735M218 736L219 737L218 736M315 736L316 737L315 736M489 736L490 737L489 736M613 736L614 737L613 736M220.667 737.333L221.333 737.667L220.667 737.333M313 737L314 738L313 737M488 737L489 738L488 737M614 737L615 738L614 737M223 738L224 739L223 738M311 738L312 739L311 738M487 738L488 739L487 738M615 738L616 739L615 738M225 739L226 740L225 739M308 739L309 740L308 739M486 739L487 740L486 739M616 739L617 740L616 739M637 739L638 740L637 739M228.667 740.333L229.333 740.667L228.667 740.333M305.667 740.333L306.333 740.667L305.667 740.333M465 740L466 741L465 740M484 740L485 741L484 740M618 740L619 741L618 740M636 740L637 741L636 740M231.667 741.333L232.333 741.667L231.667 741.333M303 741L304 742L303 741M467 741L468 742L467 741M482 741L483 742L482 741M620 741L621 742L620 741M634 741L635 742L634 741M234.667 742.333L235.333 742.667L234.667 742.333M299.667 742.333L300.333 742.667L299.667 742.333M470.667 742.333L471.333 742.667L470.667 742.333M479.667 742.333L480.333 742.667L479.667 742.333M622.667 742.333L623.333 742.667L622.667 742.333M631 742L632 743L631 742M238 743L238 744L241 744L238 743M295.667 743.333L296.333 743.667L295.667 743.333M243 744L243 745L246 745L243 744M289 744L289 745L292 745L289 744M249 745L249 746L253 746L249 745M283 745L283 746L286 746L283 745M258 746L258 747L276 747L258 746z"/>
</svg>
